<mxfile host="app.diagrams.net" modified="2024-01-11T10:08:23.249Z" agent="Mozilla/5.0 (Windows NT 10.0; Win64; x64) AppleWebKit/537.36 (KHTML, like Gecko) Chrome/120.0.0.0 Safari/537.36" etag="tiRrGbbgYCJxaRBOP_Y2" version="22.1.18" type="google">
  <diagram name="Page-1" id="wpkBvZc1dBXBpTPxEJXH">
    <mxGraphModel dx="2607" dy="1418" grid="1" gridSize="10" guides="1" tooltips="1" connect="1" arrows="1" fold="1" page="1" pageScale="1" pageWidth="827" pageHeight="1169" math="0" shadow="0">
      <root>
        <mxCell id="0" />
        <mxCell id="1" parent="0" />
        <mxCell id="h0RpJ6YCT_kKpjxw3S6f-417" value="" style="ellipse;whiteSpace=wrap;html=1;aspect=fixed;" vertex="1" parent="1">
          <mxGeometry x="1176.89" y="514.4100000000001" width="130" height="130" as="geometry" />
        </mxCell>
        <mxCell id="h0RpJ6YCT_kKpjxw3S6f-416" value="" style="ellipse;whiteSpace=wrap;html=1;aspect=fixed;" vertex="1" parent="1">
          <mxGeometry x="1176.89" y="35.00000000000004" width="130" height="130" as="geometry" />
        </mxCell>
        <mxCell id="h0RpJ6YCT_kKpjxw3S6f-371" value="" style="ellipse;whiteSpace=wrap;html=1;aspect=fixed;" vertex="1" parent="1">
          <mxGeometry x="1013.33" y="194.37999999999997" width="130" height="130" as="geometry" />
        </mxCell>
        <mxCell id="h0RpJ6YCT_kKpjxw3S6f-369" value="" style="ellipse;whiteSpace=wrap;html=1;aspect=fixed;" vertex="1" parent="1">
          <mxGeometry x="1013.3299999999999" y="355" width="130" height="130" as="geometry" />
        </mxCell>
        <mxCell id="h0RpJ6YCT_kKpjxw3S6f-360" value="" style="ellipse;whiteSpace=wrap;html=1;aspect=fixed;" vertex="1" parent="1">
          <mxGeometry x="833.33" y="516.46" width="130" height="130" as="geometry" />
        </mxCell>
        <mxCell id="h0RpJ6YCT_kKpjxw3S6f-359" value="" style="ellipse;whiteSpace=wrap;html=1;aspect=fixed;" vertex="1" parent="1">
          <mxGeometry x="837.85" y="43.33000000000004" width="130" height="130" as="geometry" />
        </mxCell>
        <mxCell id="h0RpJ6YCT_kKpjxw3S6f-321" value="" style="ellipse;whiteSpace=wrap;html=1;aspect=fixed;" vertex="1" parent="1">
          <mxGeometry x="673.46" y="358.23" width="130" height="130" as="geometry" />
        </mxCell>
        <mxCell id="h0RpJ6YCT_kKpjxw3S6f-319" value="" style="ellipse;whiteSpace=wrap;html=1;aspect=fixed;" vertex="1" parent="1">
          <mxGeometry x="673.46" y="198.23" width="130" height="130" as="geometry" />
        </mxCell>
        <mxCell id="h0RpJ6YCT_kKpjxw3S6f-261" value="" style="ellipse;whiteSpace=wrap;html=1;aspect=fixed;" vertex="1" parent="1">
          <mxGeometry x="678.46" y="202.60999999999987" width="120" height="120" as="geometry" />
        </mxCell>
        <mxCell id="h0RpJ6YCT_kKpjxw3S6f-270" value="" style="ellipse;whiteSpace=wrap;html=1;aspect=fixed;" vertex="1" parent="1">
          <mxGeometry x="678.46" y="363.2299999999999" width="120" height="120" as="geometry" />
        </mxCell>
        <mxCell id="h0RpJ6YCT_kKpjxw3S6f-289" value="" style="ellipse;whiteSpace=wrap;html=1;aspect=fixed;" vertex="1" parent="1">
          <mxGeometry x="357.85" y="40" width="130" height="130" as="geometry" />
        </mxCell>
        <mxCell id="h0RpJ6YCT_kKpjxw3S6f-288" value="" style="ellipse;whiteSpace=wrap;html=1;aspect=fixed;" vertex="1" parent="1">
          <mxGeometry x="212.85" y="198.23" width="130" height="130" as="geometry" />
        </mxCell>
        <mxCell id="h0RpJ6YCT_kKpjxw3S6f-287" value="" style="ellipse;whiteSpace=wrap;html=1;aspect=fixed;" vertex="1" parent="1">
          <mxGeometry x="212.85" y="358.23" width="130" height="130" as="geometry" />
        </mxCell>
        <mxCell id="h0RpJ6YCT_kKpjxw3S6f-286" value="" style="ellipse;whiteSpace=wrap;html=1;aspect=fixed;" vertex="1" parent="1">
          <mxGeometry x="352.85" y="518.23" width="130" height="130" as="geometry" />
        </mxCell>
        <mxCell id="h0RpJ6YCT_kKpjxw3S6f-34" value="" style="ellipse;whiteSpace=wrap;html=1;aspect=fixed;" vertex="1" parent="1">
          <mxGeometry x="217.15" y="679.9999999999999" width="120" height="120" as="geometry" />
        </mxCell>
        <mxCell id="h0RpJ6YCT_kKpjxw3S6f-35" value="" style="ellipse;whiteSpace=wrap;html=1;aspect=fixed;" vertex="1" parent="1">
          <mxGeometry x="237.15" y="699.9999999999999" width="80" height="80" as="geometry" />
        </mxCell>
        <mxCell id="h0RpJ6YCT_kKpjxw3S6f-1" value="" style="endArrow=none;html=1;rounded=0;" edge="1" parent="1">
          <mxGeometry width="50" height="50" relative="1" as="geometry">
            <mxPoint x="277.15" y="679.9999999999999" as="sourcePoint" />
            <mxPoint x="597.15" y="679.9999999999999" as="targetPoint" />
            <Array as="points">
              <mxPoint x="367.15" y="679.9999999999999" />
            </Array>
          </mxGeometry>
        </mxCell>
        <mxCell id="h0RpJ6YCT_kKpjxw3S6f-149" value="4" style="edgeLabel;html=1;align=center;verticalAlign=middle;resizable=0;points=[];" vertex="1" connectable="0" parent="h0RpJ6YCT_kKpjxw3S6f-1">
          <mxGeometry x="0.0022" y="1" relative="1" as="geometry">
            <mxPoint as="offset" />
          </mxGeometry>
        </mxCell>
        <mxCell id="h0RpJ6YCT_kKpjxw3S6f-3" value="" style="endArrow=none;html=1;rounded=0;" edge="1" parent="1">
          <mxGeometry width="50" height="50" relative="1" as="geometry">
            <mxPoint x="277.15" y="799.9999999999999" as="sourcePoint" />
            <mxPoint x="597.15" y="799.9999999999999" as="targetPoint" />
          </mxGeometry>
        </mxCell>
        <mxCell id="h0RpJ6YCT_kKpjxw3S6f-5" value="1 cell = 0.5cm" style="text;html=1;align=center;verticalAlign=middle;resizable=0;points=[];autosize=1;strokeColor=none;fillColor=none;" vertex="1" parent="1">
          <mxGeometry x="37.82" y="999.8699999999999" width="100" height="30" as="geometry" />
        </mxCell>
        <mxCell id="h0RpJ6YCT_kKpjxw3S6f-6" value="" style="ellipse;whiteSpace=wrap;html=1;aspect=fixed;" vertex="1" parent="1">
          <mxGeometry x="537.15" y="679.9999999999999" width="120" height="120" as="geometry" />
        </mxCell>
        <mxCell id="h0RpJ6YCT_kKpjxw3S6f-10" value="" style="ellipse;whiteSpace=wrap;html=1;aspect=fixed;" vertex="1" parent="1">
          <mxGeometry x="717.15" y="679.9999999999999" width="120" height="120" as="geometry" />
        </mxCell>
        <mxCell id="h0RpJ6YCT_kKpjxw3S6f-11" value="6:3.5:2.5 = 4:2.25:1.75" style="text;html=1;align=center;verticalAlign=middle;resizable=0;points=[];autosize=1;strokeColor=none;fillColor=none;" vertex="1" parent="1">
          <mxGeometry x="37.82" y="1029.87" width="140" height="30" as="geometry" />
        </mxCell>
        <mxCell id="h0RpJ6YCT_kKpjxw3S6f-12" value="" style="ellipse;whiteSpace=wrap;html=1;aspect=fixed;" vertex="1" parent="1">
          <mxGeometry x="737.15" y="699.9999999999999" width="80" height="80" as="geometry" />
        </mxCell>
        <mxCell id="h0RpJ6YCT_kKpjxw3S6f-17" value="" style="ellipse;whiteSpace=wrap;html=1;aspect=fixed;" vertex="1" parent="1">
          <mxGeometry x="557.15" y="699.9999999999999" width="80" height="80" as="geometry" />
        </mxCell>
        <mxCell id="h0RpJ6YCT_kKpjxw3S6f-18" value="" style="ellipse;whiteSpace=wrap;html=1;aspect=fixed;" vertex="1" parent="1">
          <mxGeometry x="857.15" y="679.9999999999999" width="120" height="120" as="geometry" />
        </mxCell>
        <mxCell id="h0RpJ6YCT_kKpjxw3S6f-21" value="" style="endArrow=none;html=1;rounded=0;" edge="1" parent="1">
          <mxGeometry width="50" height="50" relative="1" as="geometry">
            <mxPoint x="777.15" y="679.9999999999999" as="sourcePoint" />
            <mxPoint x="917.15" y="679.9999999999999" as="targetPoint" />
            <Array as="points" />
          </mxGeometry>
        </mxCell>
        <mxCell id="h0RpJ6YCT_kKpjxw3S6f-151" value="1.75" style="edgeLabel;html=1;align=center;verticalAlign=middle;resizable=0;points=[];" vertex="1" connectable="0" parent="h0RpJ6YCT_kKpjxw3S6f-21">
          <mxGeometry x="0.0092" relative="1" as="geometry">
            <mxPoint as="offset" />
          </mxGeometry>
        </mxCell>
        <mxCell id="h0RpJ6YCT_kKpjxw3S6f-23" value="" style="endArrow=none;html=1;rounded=0;" edge="1" parent="1">
          <mxGeometry width="50" height="50" relative="1" as="geometry">
            <mxPoint x="687.15" y="679.9999999999999" as="sourcePoint" />
            <mxPoint x="597.15" y="679.9999999999999" as="targetPoint" />
            <Array as="points">
              <mxPoint x="777.15" y="679.9999999999999" />
            </Array>
          </mxGeometry>
        </mxCell>
        <mxCell id="h0RpJ6YCT_kKpjxw3S6f-150" value="2.25" style="edgeLabel;html=1;align=center;verticalAlign=middle;resizable=0;points=[];" vertex="1" connectable="0" parent="h0RpJ6YCT_kKpjxw3S6f-23">
          <mxGeometry x="0.285" relative="1" as="geometry">
            <mxPoint as="offset" />
          </mxGeometry>
        </mxCell>
        <mxCell id="h0RpJ6YCT_kKpjxw3S6f-25" value="" style="endArrow=none;html=1;rounded=0;" edge="1" parent="1">
          <mxGeometry width="50" height="50" relative="1" as="geometry">
            <mxPoint x="917.15" y="799.9999999999999" as="sourcePoint" />
            <mxPoint x="917.15" y="679.9999999999999" as="targetPoint" />
          </mxGeometry>
        </mxCell>
        <mxCell id="h0RpJ6YCT_kKpjxw3S6f-28" value="" style="endArrow=none;html=1;rounded=0;" edge="1" parent="1">
          <mxGeometry width="50" height="50" relative="1" as="geometry">
            <mxPoint x="777.15" y="799.9999999999999" as="sourcePoint" />
            <mxPoint x="777.15" y="679.9999999999999" as="targetPoint" />
          </mxGeometry>
        </mxCell>
        <mxCell id="h0RpJ6YCT_kKpjxw3S6f-27" value="" style="endArrow=none;html=1;rounded=0;" edge="1" parent="1">
          <mxGeometry width="50" height="50" relative="1" as="geometry">
            <mxPoint x="597.15" y="799.9999999999999" as="sourcePoint" />
            <mxPoint x="597.15" y="679.9999999999999" as="targetPoint" />
          </mxGeometry>
        </mxCell>
        <mxCell id="h0RpJ6YCT_kKpjxw3S6f-30" value="" style="endArrow=none;html=1;rounded=0;" edge="1" parent="1">
          <mxGeometry width="50" height="50" relative="1" as="geometry">
            <mxPoint x="37.15" y="799.9999999999999" as="sourcePoint" />
            <mxPoint x="277.15" y="799.9999999999999" as="targetPoint" />
          </mxGeometry>
        </mxCell>
        <mxCell id="h0RpJ6YCT_kKpjxw3S6f-31" value="" style="endArrow=none;html=1;rounded=0;" edge="1" parent="1">
          <mxGeometry width="50" height="50" relative="1" as="geometry">
            <mxPoint x="37.15" y="679.9999999999999" as="sourcePoint" />
            <mxPoint x="277.15" y="679.9999999999999" as="targetPoint" />
          </mxGeometry>
        </mxCell>
        <mxCell id="h0RpJ6YCT_kKpjxw3S6f-148" value="3" style="edgeLabel;html=1;align=center;verticalAlign=middle;resizable=0;points=[];" vertex="1" connectable="0" parent="h0RpJ6YCT_kKpjxw3S6f-31">
          <mxGeometry x="-0.0244" y="-2" relative="1" as="geometry">
            <mxPoint x="2" y="-2" as="offset" />
          </mxGeometry>
        </mxCell>
        <mxCell id="h0RpJ6YCT_kKpjxw3S6f-33" value="" style="endArrow=none;html=1;rounded=0;" edge="1" parent="1">
          <mxGeometry width="50" height="50" relative="1" as="geometry">
            <mxPoint x="37.15" y="799.9999999999999" as="sourcePoint" />
            <mxPoint x="37.15" y="679.9999999999999" as="targetPoint" />
          </mxGeometry>
        </mxCell>
        <mxCell id="h0RpJ6YCT_kKpjxw3S6f-7" value="" style="endArrow=none;html=1;rounded=0;" edge="1" parent="1">
          <mxGeometry width="50" height="50" relative="1" as="geometry">
            <mxPoint x="277.15" y="799.9999999999999" as="sourcePoint" />
            <mxPoint x="277.15" y="679.9999999999999" as="targetPoint" />
          </mxGeometry>
        </mxCell>
        <mxCell id="h0RpJ6YCT_kKpjxw3S6f-37" value="" style="endArrow=none;html=1;rounded=0;" edge="1" parent="1">
          <mxGeometry width="50" height="50" relative="1" as="geometry">
            <mxPoint x="977.15" y="739.9999999999999" as="sourcePoint" />
            <mxPoint x="977.15" y="679.9999999999999" as="targetPoint" />
          </mxGeometry>
        </mxCell>
        <mxCell id="h0RpJ6YCT_kKpjxw3S6f-38" value="" style="endArrow=none;html=1;rounded=0;" edge="1" parent="1">
          <mxGeometry width="50" height="50" relative="1" as="geometry">
            <mxPoint x="977.15" y="679.9999999999999" as="sourcePoint" />
            <mxPoint x="917.15" y="679.9999999999999" as="targetPoint" />
          </mxGeometry>
        </mxCell>
        <mxCell id="h0RpJ6YCT_kKpjxw3S6f-108" value="" style="ellipse;whiteSpace=wrap;html=1;aspect=fixed;" vertex="1" parent="1">
          <mxGeometry x="1203.56" y="678.09" width="120" height="120" as="geometry" />
        </mxCell>
        <mxCell id="h0RpJ6YCT_kKpjxw3S6f-109" value="" style="ellipse;whiteSpace=wrap;html=1;aspect=fixed;" vertex="1" parent="1">
          <mxGeometry x="1223.5599999999997" y="698.09" width="80" height="80" as="geometry" />
        </mxCell>
        <mxCell id="h0RpJ6YCT_kKpjxw3S6f-110" value="" style="endArrow=none;html=1;rounded=0;" edge="1" parent="1">
          <mxGeometry width="50" height="50" relative="1" as="geometry">
            <mxPoint x="1322.9899999999998" y="738.09" as="sourcePoint" />
            <mxPoint x="1322.9899999999998" y="1058.09" as="targetPoint" />
          </mxGeometry>
        </mxCell>
        <mxCell id="h0RpJ6YCT_kKpjxw3S6f-111" value="" style="ellipse;whiteSpace=wrap;html=1;aspect=fixed;" vertex="1" parent="1">
          <mxGeometry x="1202.3799999999997" y="998.0899999999999" width="120" height="120" as="geometry" />
        </mxCell>
        <mxCell id="h0RpJ6YCT_kKpjxw3S6f-112" value="" style="ellipse;whiteSpace=wrap;html=1;aspect=fixed;" vertex="1" parent="1">
          <mxGeometry x="1023.5599999999998" y="998.0899999999999" width="120" height="120" as="geometry" />
        </mxCell>
        <mxCell id="h0RpJ6YCT_kKpjxw3S6f-113" value="" style="ellipse;whiteSpace=wrap;html=1;aspect=fixed;" vertex="1" parent="1">
          <mxGeometry x="1043.5599999999997" y="1018.0899999999999" width="80" height="80" as="geometry" />
        </mxCell>
        <mxCell id="h0RpJ6YCT_kKpjxw3S6f-114" value="" style="ellipse;whiteSpace=wrap;html=1;aspect=fixed;" vertex="1" parent="1">
          <mxGeometry x="1222.3799999999997" y="1018.0899999999999" width="80" height="80" as="geometry" />
        </mxCell>
        <mxCell id="h0RpJ6YCT_kKpjxw3S6f-115" value="" style="ellipse;whiteSpace=wrap;html=1;aspect=fixed;" vertex="1" parent="1">
          <mxGeometry x="1023.5600000000001" y="858.0899999999999" width="120" height="120" as="geometry" />
        </mxCell>
        <mxCell id="h0RpJ6YCT_kKpjxw3S6f-117" value="" style="endArrow=none;html=1;rounded=0;" edge="1" parent="1">
          <mxGeometry width="50" height="50" relative="1" as="geometry">
            <mxPoint x="1083.56" y="998.0899999999999" as="sourcePoint" />
            <mxPoint x="1263.56" y="998.0899999999999" as="targetPoint" />
            <Array as="points">
              <mxPoint x="1193.56" y="998.0899999999999" />
            </Array>
          </mxGeometry>
        </mxCell>
        <mxCell id="h0RpJ6YCT_kKpjxw3S6f-118" value="" style="endArrow=none;html=1;rounded=0;" edge="1" parent="1">
          <mxGeometry width="50" height="50" relative="1" as="geometry">
            <mxPoint x="1023.5600000000001" y="918" as="sourcePoint" />
            <mxPoint x="1143.56" y="918" as="targetPoint" />
            <Array as="points">
              <mxPoint x="1113.56" y="918" />
            </Array>
          </mxGeometry>
        </mxCell>
        <mxCell id="h0RpJ6YCT_kKpjxw3S6f-120" value="" style="endArrow=none;html=1;rounded=0;entryX=1;entryY=0.5;entryDx=0;entryDy=0;" edge="1" parent="1" target="h0RpJ6YCT_kKpjxw3S6f-115">
          <mxGeometry width="50" height="50" relative="1" as="geometry">
            <mxPoint x="1142.1299999999997" y="1058.09" as="sourcePoint" />
            <mxPoint x="1142.35" y="922.0899999999999" as="targetPoint" />
            <Array as="points">
              <mxPoint x="1142.35" y="1002.0899999999999" />
            </Array>
          </mxGeometry>
        </mxCell>
        <mxCell id="h0RpJ6YCT_kKpjxw3S6f-121" value="" style="endArrow=none;html=1;rounded=0;" edge="1" parent="1">
          <mxGeometry width="50" height="50" relative="1" as="geometry">
            <mxPoint x="1083.4699999999998" y="978.0899999999999" as="sourcePoint" />
            <mxPoint x="1083.4699999999998" y="858.0899999999999" as="targetPoint" />
          </mxGeometry>
        </mxCell>
        <mxCell id="h0RpJ6YCT_kKpjxw3S6f-122" value="" style="endArrow=none;html=1;rounded=0;" edge="1" parent="1">
          <mxGeometry width="50" height="50" relative="1" as="geometry">
            <mxPoint x="1083.1399999999999" y="1118.09" as="sourcePoint" />
            <mxPoint x="1083.1399999999999" y="998.0899999999999" as="targetPoint" />
          </mxGeometry>
        </mxCell>
        <mxCell id="h0RpJ6YCT_kKpjxw3S6f-123" value="" style="endArrow=none;html=1;rounded=0;" edge="1" parent="1">
          <mxGeometry width="50" height="50" relative="1" as="geometry">
            <mxPoint x="1023.5600000000001" y="798.0899999999999" as="sourcePoint" />
            <mxPoint x="1263.56" y="798.0899999999999" as="targetPoint" />
          </mxGeometry>
        </mxCell>
        <mxCell id="h0RpJ6YCT_kKpjxw3S6f-124" value="" style="endArrow=none;html=1;rounded=0;" edge="1" parent="1">
          <mxGeometry width="50" height="50" relative="1" as="geometry">
            <mxPoint x="1023.5600000000001" y="678.09" as="sourcePoint" />
            <mxPoint x="1263.56" y="678.09" as="targetPoint" />
          </mxGeometry>
        </mxCell>
        <mxCell id="h0RpJ6YCT_kKpjxw3S6f-125" value="" style="endArrow=none;html=1;rounded=0;" edge="1" parent="1">
          <mxGeometry width="50" height="50" relative="1" as="geometry">
            <mxPoint x="1022.85" y="798.0899999999999" as="sourcePoint" />
            <mxPoint x="1022.85" y="678.09" as="targetPoint" />
          </mxGeometry>
        </mxCell>
        <mxCell id="h0RpJ6YCT_kKpjxw3S6f-126" value="" style="endArrow=none;html=1;rounded=0;" edge="1" parent="1">
          <mxGeometry width="50" height="50" relative="1" as="geometry">
            <mxPoint x="1263.5599999999997" y="798.0899999999999" as="sourcePoint" />
            <mxPoint x="1263.5599999999997" y="678.09" as="targetPoint" />
          </mxGeometry>
        </mxCell>
        <mxCell id="h0RpJ6YCT_kKpjxw3S6f-127" value="" style="endArrow=none;html=1;rounded=0;" edge="1" parent="1">
          <mxGeometry width="50" height="50" relative="1" as="geometry">
            <mxPoint x="1023.39" y="918.0899999999999" as="sourcePoint" />
            <mxPoint x="1023.39" y="858.0899999999999" as="targetPoint" />
          </mxGeometry>
        </mxCell>
        <mxCell id="h0RpJ6YCT_kKpjxw3S6f-128" value="" style="endArrow=none;html=1;rounded=0;" edge="1" parent="1">
          <mxGeometry width="50" height="50" relative="1" as="geometry">
            <mxPoint x="1083.56" y="858.0899999999999" as="sourcePoint" />
            <mxPoint x="1023.5600000000001" y="858.0899999999999" as="targetPoint" />
          </mxGeometry>
        </mxCell>
        <mxCell id="h0RpJ6YCT_kKpjxw3S6f-132" value="" style="endArrow=none;html=1;rounded=0;exitX=0.996;exitY=0.476;exitDx=0;exitDy=0;exitPerimeter=0;entryX=0;entryY=0.5;entryDx=0;entryDy=0;" edge="1" parent="1" target="h0RpJ6YCT_kKpjxw3S6f-108">
          <mxGeometry width="50" height="50" relative="1" as="geometry">
            <mxPoint x="1323.56" y="737.37" as="sourcePoint" />
            <mxPoint x="1199.4499999999998" y="738.8199999999999" as="targetPoint" />
          </mxGeometry>
        </mxCell>
        <mxCell id="h0RpJ6YCT_kKpjxw3S6f-133" value="" style="endArrow=none;html=1;rounded=0;" edge="1" parent="1">
          <mxGeometry width="50" height="50" relative="1" as="geometry">
            <mxPoint x="1262.04" y="1118.09" as="sourcePoint" />
            <mxPoint x="1262.04" y="998.0899999999999" as="targetPoint" />
          </mxGeometry>
        </mxCell>
        <mxCell id="h0RpJ6YCT_kKpjxw3S6f-134" value="" style="endArrow=none;html=1;rounded=0;exitX=0;exitY=0.5;exitDx=0;exitDy=0;" edge="1" parent="1" source="h0RpJ6YCT_kKpjxw3S6f-111">
          <mxGeometry width="50" height="50" relative="1" as="geometry">
            <mxPoint x="1397.56" y="1118.09" as="sourcePoint" />
            <mxPoint x="1323.56" y="1058.09" as="targetPoint" />
          </mxGeometry>
        </mxCell>
        <mxCell id="h0RpJ6YCT_kKpjxw3S6f-136" value="" style="endArrow=none;html=1;rounded=0;exitX=0;exitY=0.5;exitDx=0;exitDy=0;" edge="1" parent="1" source="h0RpJ6YCT_kKpjxw3S6f-112">
          <mxGeometry width="50" height="50" relative="1" as="geometry">
            <mxPoint x="1143.5599999999997" y="1178.09" as="sourcePoint" />
            <mxPoint x="1143.5599999999997" y="1058.09" as="targetPoint" />
          </mxGeometry>
        </mxCell>
        <mxCell id="h0RpJ6YCT_kKpjxw3S6f-138" value="" style="endArrow=none;html=1;rounded=0;" edge="1" parent="1">
          <mxGeometry width="50" height="50" relative="1" as="geometry">
            <mxPoint x="1203.56" y="738.09" as="sourcePoint" />
            <mxPoint x="1203.56" y="1058.09" as="targetPoint" />
          </mxGeometry>
        </mxCell>
        <mxCell id="h0RpJ6YCT_kKpjxw3S6f-139" value="" style="endArrow=none;html=1;rounded=0;" edge="1" parent="1">
          <mxGeometry width="50" height="50" relative="1" as="geometry">
            <mxPoint x="1083.56" y="1118.09" as="sourcePoint" />
            <mxPoint x="1263.56" y="1118.09" as="targetPoint" />
            <Array as="points">
              <mxPoint x="1193.56" y="1118.09" />
            </Array>
          </mxGeometry>
        </mxCell>
        <mxCell id="h0RpJ6YCT_kKpjxw3S6f-141" value="" style="endArrow=none;html=1;rounded=0;" edge="1" parent="1">
          <mxGeometry width="50" height="50" relative="1" as="geometry">
            <mxPoint x="1023.3399999999998" y="1058.09" as="sourcePoint" />
            <mxPoint x="1023.5600000000001" y="918.0899999999999" as="targetPoint" />
            <Array as="points">
              <mxPoint x="1023.5600000000001" y="998.0899999999999" />
            </Array>
          </mxGeometry>
        </mxCell>
        <mxCell id="h0RpJ6YCT_kKpjxw3S6f-144" value="" style="endArrow=none;html=1;rounded=0;" edge="1" parent="1">
          <mxGeometry width="50" height="50" relative="1" as="geometry">
            <mxPoint x="687.15" y="799.9999999999999" as="sourcePoint" />
            <mxPoint x="597.15" y="799.9999999999999" as="targetPoint" />
            <Array as="points">
              <mxPoint x="777.15" y="799.9999999999999" />
            </Array>
          </mxGeometry>
        </mxCell>
        <mxCell id="h0RpJ6YCT_kKpjxw3S6f-145" value="" style="endArrow=none;html=1;rounded=0;" edge="1" parent="1">
          <mxGeometry width="50" height="50" relative="1" as="geometry">
            <mxPoint x="777.15" y="799.9999999999999" as="sourcePoint" />
            <mxPoint x="917.15" y="799.9999999999999" as="targetPoint" />
            <Array as="points">
              <mxPoint x="845.9399999999999" y="799.9999999999999" />
            </Array>
          </mxGeometry>
        </mxCell>
        <mxCell id="h0RpJ6YCT_kKpjxw3S6f-152" value="" style="endArrow=none;html=1;rounded=0;" edge="1" parent="1">
          <mxGeometry width="50" height="50" relative="1" as="geometry">
            <mxPoint x="227.15" y="789.9999999999999" as="sourcePoint" />
            <mxPoint x="277.15" y="739.9999999999999" as="targetPoint" />
          </mxGeometry>
        </mxCell>
        <mxCell id="h0RpJ6YCT_kKpjxw3S6f-153" value="" style="endArrow=none;html=1;rounded=0;" edge="1" parent="1">
          <mxGeometry width="50" height="50" relative="1" as="geometry">
            <mxPoint x="177.15" y="789.9999999999999" as="sourcePoint" />
            <mxPoint x="227.15" y="789.9999999999999" as="targetPoint" />
          </mxGeometry>
        </mxCell>
        <mxCell id="h0RpJ6YCT_kKpjxw3S6f-154" value="D1.5" style="text;html=1;align=center;verticalAlign=middle;resizable=0;points=[];autosize=1;strokeColor=none;fillColor=none;" vertex="1" parent="1">
          <mxGeometry x="165" y="769.9999999999999" width="50" height="30" as="geometry" />
        </mxCell>
        <mxCell id="h0RpJ6YCT_kKpjxw3S6f-155" value="" style="endArrow=none;html=1;rounded=0;" edge="1" parent="1" target="h0RpJ6YCT_kKpjxw3S6f-34">
          <mxGeometry width="50" height="50" relative="1" as="geometry">
            <mxPoint x="277.15" y="739.9999999999999" as="sourcePoint" />
            <mxPoint x="317.15" y="709.9999999999999" as="targetPoint" />
          </mxGeometry>
        </mxCell>
        <mxCell id="h0RpJ6YCT_kKpjxw3S6f-156" value="" style="endArrow=none;html=1;rounded=0;" edge="1" parent="1">
          <mxGeometry width="50" height="50" relative="1" as="geometry">
            <mxPoint x="277.15" y="739.9999999999999" as="sourcePoint" />
            <mxPoint x="317.15" y="699.9999999999999" as="targetPoint" />
          </mxGeometry>
        </mxCell>
        <mxCell id="h0RpJ6YCT_kKpjxw3S6f-157" value="" style="endArrow=none;html=1;rounded=0;" edge="1" parent="1">
          <mxGeometry width="50" height="50" relative="1" as="geometry">
            <mxPoint x="317.15" y="699.9999999999999" as="sourcePoint" />
            <mxPoint x="377.15" y="699.9999999999999" as="targetPoint" />
          </mxGeometry>
        </mxCell>
        <mxCell id="h0RpJ6YCT_kKpjxw3S6f-158" value="D1" style="text;html=1;align=center;verticalAlign=middle;resizable=0;points=[];autosize=1;strokeColor=none;fillColor=none;" vertex="1" parent="1">
          <mxGeometry x="347.15" y="679.9999999999999" width="40" height="30" as="geometry" />
        </mxCell>
        <mxCell id="h0RpJ6YCT_kKpjxw3S6f-159" value="" style="ellipse;whiteSpace=wrap;html=1;aspect=fixed;" vertex="1" parent="1">
          <mxGeometry x="217.69" y="839.87" width="120" height="120" as="geometry" />
        </mxCell>
        <mxCell id="h0RpJ6YCT_kKpjxw3S6f-164" value="" style="ellipse;whiteSpace=wrap;html=1;aspect=fixed;" vertex="1" parent="1">
          <mxGeometry x="536.1500000000001" y="839" width="120" height="120" as="geometry" />
        </mxCell>
        <mxCell id="h0RpJ6YCT_kKpjxw3S6f-165" value="" style="ellipse;whiteSpace=wrap;html=1;aspect=fixed;" vertex="1" parent="1">
          <mxGeometry x="716.1500000000001" y="839" width="120" height="120" as="geometry" />
        </mxCell>
        <mxCell id="h0RpJ6YCT_kKpjxw3S6f-167" value="" style="ellipse;whiteSpace=wrap;html=1;aspect=fixed;" vertex="1" parent="1">
          <mxGeometry x="556.1500000000001" y="859" width="80" height="80" as="geometry" />
        </mxCell>
        <mxCell id="h0RpJ6YCT_kKpjxw3S6f-168" value="" style="ellipse;whiteSpace=wrap;html=1;aspect=fixed;" vertex="1" parent="1">
          <mxGeometry x="856.1500000000001" y="979" width="120" height="120" as="geometry" />
        </mxCell>
        <mxCell id="h0RpJ6YCT_kKpjxw3S6f-169" value="" style="endArrow=none;html=1;rounded=0;" edge="1" parent="1">
          <mxGeometry width="50" height="50" relative="1" as="geometry">
            <mxPoint x="776.1500000000001" y="979" as="sourcePoint" />
            <mxPoint x="916.1500000000001" y="979" as="targetPoint" />
            <Array as="points" />
          </mxGeometry>
        </mxCell>
        <mxCell id="h0RpJ6YCT_kKpjxw3S6f-171" value="" style="endArrow=none;html=1;rounded=0;" edge="1" parent="1">
          <mxGeometry width="50" height="50" relative="1" as="geometry">
            <mxPoint x="686.1500000000001" y="839" as="sourcePoint" />
            <mxPoint x="596.1500000000001" y="839" as="targetPoint" />
            <Array as="points">
              <mxPoint x="776.1500000000001" y="839" />
            </Array>
          </mxGeometry>
        </mxCell>
        <mxCell id="h0RpJ6YCT_kKpjxw3S6f-173" value="" style="endArrow=none;html=1;rounded=0;" edge="1" parent="1">
          <mxGeometry width="50" height="50" relative="1" as="geometry">
            <mxPoint x="916.1500000000001" y="1099" as="sourcePoint" />
            <mxPoint x="916.1500000000001" y="979" as="targetPoint" />
          </mxGeometry>
        </mxCell>
        <mxCell id="h0RpJ6YCT_kKpjxw3S6f-174" value="" style="endArrow=none;html=1;rounded=0;" edge="1" parent="1">
          <mxGeometry width="50" height="50" relative="1" as="geometry">
            <mxPoint x="776.1500000000001" y="959" as="sourcePoint" />
            <mxPoint x="776.1500000000001" y="839" as="targetPoint" />
          </mxGeometry>
        </mxCell>
        <mxCell id="h0RpJ6YCT_kKpjxw3S6f-175" value="" style="endArrow=none;html=1;rounded=0;" edge="1" parent="1">
          <mxGeometry width="50" height="50" relative="1" as="geometry">
            <mxPoint x="596.1500000000001" y="959" as="sourcePoint" />
            <mxPoint x="596.1500000000001" y="839" as="targetPoint" />
          </mxGeometry>
        </mxCell>
        <mxCell id="h0RpJ6YCT_kKpjxw3S6f-176" value="" style="endArrow=none;html=1;rounded=0;" edge="1" parent="1">
          <mxGeometry width="50" height="50" relative="1" as="geometry">
            <mxPoint x="37.69" y="959.8699999999999" as="sourcePoint" />
            <mxPoint x="277.69" y="959.8699999999999" as="targetPoint" />
          </mxGeometry>
        </mxCell>
        <mxCell id="h0RpJ6YCT_kKpjxw3S6f-177" value="" style="endArrow=none;html=1;rounded=0;" edge="1" parent="1">
          <mxGeometry width="50" height="50" relative="1" as="geometry">
            <mxPoint x="37.69" y="839.87" as="sourcePoint" />
            <mxPoint x="277.69" y="839.87" as="targetPoint" />
          </mxGeometry>
        </mxCell>
        <mxCell id="h0RpJ6YCT_kKpjxw3S6f-179" value="" style="endArrow=none;html=1;rounded=0;" edge="1" parent="1">
          <mxGeometry width="50" height="50" relative="1" as="geometry">
            <mxPoint x="37.69" y="959.8699999999999" as="sourcePoint" />
            <mxPoint x="37.69" y="839.87" as="targetPoint" />
          </mxGeometry>
        </mxCell>
        <mxCell id="h0RpJ6YCT_kKpjxw3S6f-180" value="" style="endArrow=none;html=1;rounded=0;" edge="1" parent="1">
          <mxGeometry width="50" height="50" relative="1" as="geometry">
            <mxPoint x="277.69" y="959.8699999999999" as="sourcePoint" />
            <mxPoint x="277.69" y="839.87" as="targetPoint" />
          </mxGeometry>
        </mxCell>
        <mxCell id="h0RpJ6YCT_kKpjxw3S6f-181" value="" style="endArrow=none;html=1;rounded=0;" edge="1" parent="1">
          <mxGeometry width="50" height="50" relative="1" as="geometry">
            <mxPoint x="976.1500000000001" y="1039" as="sourcePoint" />
            <mxPoint x="976.1500000000001" y="979" as="targetPoint" />
          </mxGeometry>
        </mxCell>
        <mxCell id="h0RpJ6YCT_kKpjxw3S6f-182" value="" style="endArrow=none;html=1;rounded=0;" edge="1" parent="1">
          <mxGeometry width="50" height="50" relative="1" as="geometry">
            <mxPoint x="976.1500000000001" y="979" as="sourcePoint" />
            <mxPoint x="916.1500000000001" y="979" as="targetPoint" />
          </mxGeometry>
        </mxCell>
        <mxCell id="h0RpJ6YCT_kKpjxw3S6f-183" value="" style="endArrow=none;html=1;rounded=0;" edge="1" parent="1">
          <mxGeometry width="50" height="50" relative="1" as="geometry">
            <mxPoint x="686.1500000000001" y="959" as="sourcePoint" />
            <mxPoint x="596.1500000000001" y="959" as="targetPoint" />
            <Array as="points">
              <mxPoint x="776.1500000000001" y="959" />
            </Array>
          </mxGeometry>
        </mxCell>
        <mxCell id="h0RpJ6YCT_kKpjxw3S6f-184" value="" style="endArrow=none;html=1;rounded=0;" edge="1" parent="1">
          <mxGeometry width="50" height="50" relative="1" as="geometry">
            <mxPoint x="776.1500000000001" y="1099" as="sourcePoint" />
            <mxPoint x="916.1500000000001" y="1099" as="targetPoint" />
            <Array as="points">
              <mxPoint x="844.94" y="1099" />
            </Array>
          </mxGeometry>
        </mxCell>
        <mxCell id="h0RpJ6YCT_kKpjxw3S6f-188" value="" style="endArrow=none;html=1;rounded=0;" edge="1" parent="1" target="h0RpJ6YCT_kKpjxw3S6f-159">
          <mxGeometry width="50" height="50" relative="1" as="geometry">
            <mxPoint x="277.69" y="899.8699999999999" as="sourcePoint" />
            <mxPoint x="317.69" y="869.87" as="targetPoint" />
          </mxGeometry>
        </mxCell>
        <mxCell id="h0RpJ6YCT_kKpjxw3S6f-197" value="" style="endArrow=none;html=1;rounded=0;" edge="1" parent="1">
          <mxGeometry width="50" height="50" relative="1" as="geometry">
            <mxPoint x="278.29999999999995" y="979.8699999999999" as="sourcePoint" />
            <mxPoint x="598.3000000000001" y="979.8699999999999" as="targetPoint" />
            <Array as="points">
              <mxPoint x="368.29999999999995" y="979.8699999999999" />
            </Array>
          </mxGeometry>
        </mxCell>
        <mxCell id="h0RpJ6YCT_kKpjxw3S6f-198" value="" style="endArrow=none;html=1;rounded=0;" edge="1" parent="1">
          <mxGeometry width="50" height="50" relative="1" as="geometry">
            <mxPoint x="278.29999999999995" y="1099.87" as="sourcePoint" />
            <mxPoint x="598.3000000000001" y="1099.87" as="targetPoint" />
          </mxGeometry>
        </mxCell>
        <mxCell id="h0RpJ6YCT_kKpjxw3S6f-199" value="" style="ellipse;whiteSpace=wrap;html=1;aspect=fixed;" vertex="1" parent="1">
          <mxGeometry x="538.3000000000001" y="979.8699999999999" width="120" height="120" as="geometry" />
        </mxCell>
        <mxCell id="h0RpJ6YCT_kKpjxw3S6f-201" value="" style="endArrow=none;html=1;rounded=0;" edge="1" parent="1">
          <mxGeometry width="50" height="50" relative="1" as="geometry">
            <mxPoint x="598.3000000000001" y="1099.87" as="sourcePoint" />
            <mxPoint x="598.3000000000001" y="979.8699999999999" as="targetPoint" />
          </mxGeometry>
        </mxCell>
        <mxCell id="h0RpJ6YCT_kKpjxw3S6f-202" value="" style="ellipse;whiteSpace=wrap;html=1;aspect=fixed;" vertex="1" parent="1">
          <mxGeometry x="217.69" y="979.8699999999999" width="120" height="120" as="geometry" />
        </mxCell>
        <mxCell id="h0RpJ6YCT_kKpjxw3S6f-160" value="" style="ellipse;whiteSpace=wrap;html=1;aspect=fixed;" vertex="1" parent="1">
          <mxGeometry x="237.69" y="999.8699999999999" width="80" height="80" as="geometry" />
        </mxCell>
        <mxCell id="h0RpJ6YCT_kKpjxw3S6f-203" value="" style="endArrow=none;html=1;rounded=0;" edge="1" parent="1">
          <mxGeometry width="50" height="50" relative="1" as="geometry">
            <mxPoint x="277.26" y="1099.87" as="sourcePoint" />
            <mxPoint x="277.26" y="979.8699999999999" as="targetPoint" />
          </mxGeometry>
        </mxCell>
        <mxCell id="h0RpJ6YCT_kKpjxw3S6f-205" value="" style="endArrow=none;html=1;rounded=0;" edge="1" parent="1">
          <mxGeometry width="50" height="50" relative="1" as="geometry">
            <mxPoint x="287.6892500140622" y="899.8300037499298" as="sourcePoint" />
            <mxPoint x="267.69" y="899.77" as="targetPoint" />
          </mxGeometry>
        </mxCell>
        <mxCell id="h0RpJ6YCT_kKpjxw3S6f-206" value="" style="endArrow=none;html=1;rounded=0;" edge="1" parent="1">
          <mxGeometry width="50" height="50" relative="1" as="geometry">
            <mxPoint x="608.2992500140623" y="1039.7200037499297" as="sourcePoint" />
            <mxPoint x="588.3000000000001" y="1039.6599999999999" as="targetPoint" />
          </mxGeometry>
        </mxCell>
        <mxCell id="h0RpJ6YCT_kKpjxw3S6f-207" value="" style="endArrow=none;html=1;rounded=0;" edge="1" parent="1">
          <mxGeometry width="50" height="50" relative="1" as="geometry">
            <mxPoint x="786.1492500140623" y="899.6800037499297" as="sourcePoint" />
            <mxPoint x="766.1500000000001" y="899.6199999999999" as="targetPoint" />
          </mxGeometry>
        </mxCell>
        <mxCell id="h0RpJ6YCT_kKpjxw3S6f-212" value="" style="ellipse;whiteSpace=wrap;html=1;aspect=fixed;" vertex="1" parent="1">
          <mxGeometry x="716.1500000000001" y="979" width="120" height="120" as="geometry" />
        </mxCell>
        <mxCell id="h0RpJ6YCT_kKpjxw3S6f-213" value="" style="ellipse;whiteSpace=wrap;html=1;aspect=fixed;" vertex="1" parent="1">
          <mxGeometry x="736.1500000000001" y="999" width="80" height="80" as="geometry" />
        </mxCell>
        <mxCell id="h0RpJ6YCT_kKpjxw3S6f-214" value="" style="endArrow=none;html=1;rounded=0;" edge="1" parent="1">
          <mxGeometry width="50" height="50" relative="1" as="geometry">
            <mxPoint x="776.1500000000001" y="1099" as="sourcePoint" />
            <mxPoint x="776.1500000000001" y="979" as="targetPoint" />
          </mxGeometry>
        </mxCell>
        <mxCell id="h0RpJ6YCT_kKpjxw3S6f-215" value="" style="endArrow=none;html=1;rounded=0;" edge="1" parent="1">
          <mxGeometry width="50" height="50" relative="1" as="geometry">
            <mxPoint x="287.6892500140622" y="1039.6800037499297" as="sourcePoint" />
            <mxPoint x="267.69" y="1039.62" as="targetPoint" />
          </mxGeometry>
        </mxCell>
        <mxCell id="h0RpJ6YCT_kKpjxw3S6f-217" value="" style="endArrow=none;html=1;rounded=0;" edge="1" parent="1">
          <mxGeometry width="50" height="50" relative="1" as="geometry">
            <mxPoint x="606.1492500140623" y="898.8800037499295" as="sourcePoint" />
            <mxPoint x="586.1500000000001" y="898.8199999999999" as="targetPoint" />
          </mxGeometry>
        </mxCell>
        <mxCell id="h0RpJ6YCT_kKpjxw3S6f-218" value="" style="endArrow=none;html=1;rounded=0;" edge="1" parent="1">
          <mxGeometry width="50" height="50" relative="1" as="geometry">
            <mxPoint x="786.1492500140623" y="1039.7500037499299" as="sourcePoint" />
            <mxPoint x="766.1500000000001" y="1039.69" as="targetPoint" />
          </mxGeometry>
        </mxCell>
        <mxCell id="h0RpJ6YCT_kKpjxw3S6f-220" value="" style="ellipse;whiteSpace=wrap;html=1;aspect=fixed;" vertex="1" parent="1">
          <mxGeometry x="220" y="45" width="120" height="120" as="geometry" />
        </mxCell>
        <mxCell id="h0RpJ6YCT_kKpjxw3S6f-221" value="" style="endArrow=none;html=1;rounded=0;" edge="1" parent="1">
          <mxGeometry width="50" height="50" relative="1" as="geometry">
            <mxPoint x="40" y="165" as="sourcePoint" />
            <mxPoint x="280.00000000000006" y="165" as="targetPoint" />
          </mxGeometry>
        </mxCell>
        <mxCell id="h0RpJ6YCT_kKpjxw3S6f-222" value="" style="endArrow=none;html=1;rounded=0;" edge="1" parent="1">
          <mxGeometry width="50" height="50" relative="1" as="geometry">
            <mxPoint x="40" y="45" as="sourcePoint" />
            <mxPoint x="280.00000000000006" y="45" as="targetPoint" />
          </mxGeometry>
        </mxCell>
        <mxCell id="h0RpJ6YCT_kKpjxw3S6f-223" value="" style="endArrow=none;html=1;rounded=0;" edge="1" parent="1">
          <mxGeometry width="50" height="50" relative="1" as="geometry">
            <mxPoint x="40" y="165" as="sourcePoint" />
            <mxPoint x="40" y="45" as="targetPoint" />
          </mxGeometry>
        </mxCell>
        <mxCell id="h0RpJ6YCT_kKpjxw3S6f-224" value="" style="endArrow=none;html=1;rounded=0;" edge="1" parent="1">
          <mxGeometry width="50" height="50" relative="1" as="geometry">
            <mxPoint x="280.00000000000006" y="165" as="sourcePoint" />
            <mxPoint x="280.00000000000006" y="45" as="targetPoint" />
          </mxGeometry>
        </mxCell>
        <mxCell id="h0RpJ6YCT_kKpjxw3S6f-225" value="" style="endArrow=none;html=1;rounded=0;" edge="1" parent="1" target="h0RpJ6YCT_kKpjxw3S6f-220">
          <mxGeometry width="50" height="50" relative="1" as="geometry">
            <mxPoint x="280.00000000000006" y="105" as="sourcePoint" />
            <mxPoint x="320.00000000000006" y="75" as="targetPoint" />
          </mxGeometry>
        </mxCell>
        <mxCell id="h0RpJ6YCT_kKpjxw3S6f-226" value="" style="endArrow=none;html=1;rounded=0;" edge="1" parent="1">
          <mxGeometry width="50" height="50" relative="1" as="geometry">
            <mxPoint x="289.9992500140623" y="104.96000374992968" as="sourcePoint" />
            <mxPoint x="270.00000000000006" y="104.89999999999998" as="targetPoint" />
          </mxGeometry>
        </mxCell>
        <mxCell id="h0RpJ6YCT_kKpjxw3S6f-227" value="" style="ellipse;whiteSpace=wrap;html=1;aspect=fixed;" vertex="1" parent="1">
          <mxGeometry x="217.85" y="203.23" width="120" height="120" as="geometry" />
        </mxCell>
        <mxCell id="h0RpJ6YCT_kKpjxw3S6f-228" value="" style="endArrow=none;html=1;rounded=0;" edge="1" parent="1">
          <mxGeometry width="50" height="50" relative="1" as="geometry">
            <mxPoint x="37.85" y="323.23" as="sourcePoint" />
            <mxPoint x="277.85" y="323.23" as="targetPoint" />
          </mxGeometry>
        </mxCell>
        <mxCell id="h0RpJ6YCT_kKpjxw3S6f-229" value="" style="endArrow=none;html=1;rounded=0;" edge="1" parent="1">
          <mxGeometry width="50" height="50" relative="1" as="geometry">
            <mxPoint x="37.85" y="203.23" as="sourcePoint" />
            <mxPoint x="277.85" y="203.23" as="targetPoint" />
          </mxGeometry>
        </mxCell>
        <mxCell id="h0RpJ6YCT_kKpjxw3S6f-230" value="" style="endArrow=none;html=1;rounded=0;" edge="1" parent="1">
          <mxGeometry width="50" height="50" relative="1" as="geometry">
            <mxPoint x="37.85" y="323.23" as="sourcePoint" />
            <mxPoint x="37.85" y="203.23" as="targetPoint" />
          </mxGeometry>
        </mxCell>
        <mxCell id="h0RpJ6YCT_kKpjxw3S6f-232" value="" style="endArrow=none;html=1;rounded=0;" edge="1" parent="1" target="h0RpJ6YCT_kKpjxw3S6f-227">
          <mxGeometry width="50" height="50" relative="1" as="geometry">
            <mxPoint x="277.85" y="263.23" as="sourcePoint" />
            <mxPoint x="317.85" y="233.23" as="targetPoint" />
          </mxGeometry>
        </mxCell>
        <mxCell id="h0RpJ6YCT_kKpjxw3S6f-234" value="" style="ellipse;whiteSpace=wrap;html=1;aspect=fixed;" vertex="1" parent="1">
          <mxGeometry x="217.85" y="363.23" width="120" height="120" as="geometry" />
        </mxCell>
        <mxCell id="h0RpJ6YCT_kKpjxw3S6f-235" value="" style="endArrow=none;html=1;rounded=0;" edge="1" parent="1">
          <mxGeometry width="50" height="50" relative="1" as="geometry">
            <mxPoint x="37.85" y="483.23" as="sourcePoint" />
            <mxPoint x="277.85" y="483.23" as="targetPoint" />
          </mxGeometry>
        </mxCell>
        <mxCell id="h0RpJ6YCT_kKpjxw3S6f-236" value="" style="endArrow=none;html=1;rounded=0;" edge="1" parent="1">
          <mxGeometry width="50" height="50" relative="1" as="geometry">
            <mxPoint x="37.85" y="363.23" as="sourcePoint" />
            <mxPoint x="277.85" y="363.23" as="targetPoint" />
          </mxGeometry>
        </mxCell>
        <mxCell id="h0RpJ6YCT_kKpjxw3S6f-237" value="" style="endArrow=none;html=1;rounded=0;" edge="1" parent="1">
          <mxGeometry width="50" height="50" relative="1" as="geometry">
            <mxPoint x="37.85" y="483.23" as="sourcePoint" />
            <mxPoint x="37.85" y="363.23" as="targetPoint" />
          </mxGeometry>
        </mxCell>
        <mxCell id="h0RpJ6YCT_kKpjxw3S6f-239" value="" style="endArrow=none;html=1;rounded=0;" edge="1" parent="1" target="h0RpJ6YCT_kKpjxw3S6f-234">
          <mxGeometry width="50" height="50" relative="1" as="geometry">
            <mxPoint x="277.85" y="423.23" as="sourcePoint" />
            <mxPoint x="317.85" y="393.23" as="targetPoint" />
          </mxGeometry>
        </mxCell>
        <mxCell id="h0RpJ6YCT_kKpjxw3S6f-241" value="" style="ellipse;whiteSpace=wrap;html=1;aspect=fixed;" vertex="1" parent="1">
          <mxGeometry x="217.85" y="523.23" width="120" height="120" as="geometry" />
        </mxCell>
        <mxCell id="h0RpJ6YCT_kKpjxw3S6f-242" value="" style="endArrow=none;html=1;rounded=0;" edge="1" parent="1">
          <mxGeometry width="50" height="50" relative="1" as="geometry">
            <mxPoint x="37.85" y="643.23" as="sourcePoint" />
            <mxPoint x="277.85" y="643.23" as="targetPoint" />
          </mxGeometry>
        </mxCell>
        <mxCell id="h0RpJ6YCT_kKpjxw3S6f-243" value="" style="endArrow=none;html=1;rounded=0;" edge="1" parent="1">
          <mxGeometry width="50" height="50" relative="1" as="geometry">
            <mxPoint x="37.85" y="523.23" as="sourcePoint" />
            <mxPoint x="277.85" y="523.23" as="targetPoint" />
          </mxGeometry>
        </mxCell>
        <mxCell id="h0RpJ6YCT_kKpjxw3S6f-244" value="" style="endArrow=none;html=1;rounded=0;" edge="1" parent="1">
          <mxGeometry width="50" height="50" relative="1" as="geometry">
            <mxPoint x="37.85" y="643.23" as="sourcePoint" />
            <mxPoint x="37.85" y="523.23" as="targetPoint" />
          </mxGeometry>
        </mxCell>
        <mxCell id="h0RpJ6YCT_kKpjxw3S6f-245" value="" style="endArrow=none;html=1;rounded=0;" edge="1" parent="1">
          <mxGeometry width="50" height="50" relative="1" as="geometry">
            <mxPoint x="277.85" y="643.23" as="sourcePoint" />
            <mxPoint x="277.85" y="523.23" as="targetPoint" />
          </mxGeometry>
        </mxCell>
        <mxCell id="h0RpJ6YCT_kKpjxw3S6f-246" value="" style="endArrow=none;html=1;rounded=0;" edge="1" parent="1" target="h0RpJ6YCT_kKpjxw3S6f-241">
          <mxGeometry width="50" height="50" relative="1" as="geometry">
            <mxPoint x="277.85" y="583.23" as="sourcePoint" />
            <mxPoint x="317.85" y="553.23" as="targetPoint" />
          </mxGeometry>
        </mxCell>
        <mxCell id="h0RpJ6YCT_kKpjxw3S6f-247" value="" style="endArrow=none;html=1;rounded=0;" edge="1" parent="1">
          <mxGeometry width="50" height="50" relative="1" as="geometry">
            <mxPoint x="287.84925001406225" y="583.1900037499297" as="sourcePoint" />
            <mxPoint x="267.85" y="583.13" as="targetPoint" />
          </mxGeometry>
        </mxCell>
        <mxCell id="h0RpJ6YCT_kKpjxw3S6f-248" value="" style="endArrow=none;html=1;rounded=0;" edge="1" parent="1">
          <mxGeometry width="50" height="50" relative="1" as="geometry">
            <mxPoint x="212.85" y="321.98" as="sourcePoint" />
            <mxPoint x="212.85" y="263.23" as="targetPoint" />
          </mxGeometry>
        </mxCell>
        <mxCell id="h0RpJ6YCT_kKpjxw3S6f-249" value="" style="endArrow=none;html=1;rounded=0;" edge="1" parent="1">
          <mxGeometry width="50" height="50" relative="1" as="geometry">
            <mxPoint x="212.85" y="483.23" as="sourcePoint" />
            <mxPoint x="212.85" y="424.48" as="targetPoint" />
          </mxGeometry>
        </mxCell>
        <mxCell id="h0RpJ6YCT_kKpjxw3S6f-250" value="" style="endArrow=none;html=1;rounded=0;" edge="1" parent="1">
          <mxGeometry width="50" height="50" relative="1" as="geometry">
            <mxPoint x="423.46" y="44.999999999999886" as="sourcePoint" />
            <mxPoint x="743.46" y="44.999999999999886" as="targetPoint" />
            <Array as="points">
              <mxPoint x="513.4599999999999" y="44.999999999999886" />
            </Array>
          </mxGeometry>
        </mxCell>
        <mxCell id="h0RpJ6YCT_kKpjxw3S6f-251" value="" style="endArrow=none;html=1;rounded=0;" edge="1" parent="1">
          <mxGeometry width="50" height="50" relative="1" as="geometry">
            <mxPoint x="423.46" y="164.9999999999999" as="sourcePoint" />
            <mxPoint x="743.46" y="164.9999999999999" as="targetPoint" />
          </mxGeometry>
        </mxCell>
        <mxCell id="h0RpJ6YCT_kKpjxw3S6f-252" value="" style="ellipse;whiteSpace=wrap;html=1;aspect=fixed;" vertex="1" parent="1">
          <mxGeometry x="683.46" y="44.999999999999886" width="120" height="120" as="geometry" />
        </mxCell>
        <mxCell id="h0RpJ6YCT_kKpjxw3S6f-253" value="" style="endArrow=none;html=1;rounded=0;" edge="1" parent="1">
          <mxGeometry width="50" height="50" relative="1" as="geometry">
            <mxPoint x="743.46" y="164.9999999999999" as="sourcePoint" />
            <mxPoint x="743.46" y="44.999999999999886" as="targetPoint" />
          </mxGeometry>
        </mxCell>
        <mxCell id="h0RpJ6YCT_kKpjxw3S6f-254" value="" style="ellipse;whiteSpace=wrap;html=1;aspect=fixed;" vertex="1" parent="1">
          <mxGeometry x="362.85" y="44.999999999999886" width="120" height="120" as="geometry" />
        </mxCell>
        <mxCell id="h0RpJ6YCT_kKpjxw3S6f-256" value="" style="endArrow=none;html=1;rounded=0;" edge="1" parent="1">
          <mxGeometry width="50" height="50" relative="1" as="geometry">
            <mxPoint x="422.42" y="164.9999999999999" as="sourcePoint" />
            <mxPoint x="422.42" y="44.999999999999886" as="targetPoint" />
          </mxGeometry>
        </mxCell>
        <mxCell id="h0RpJ6YCT_kKpjxw3S6f-257" value="" style="endArrow=none;html=1;rounded=0;" edge="1" parent="1">
          <mxGeometry width="50" height="50" relative="1" as="geometry">
            <mxPoint x="753.4592500140623" y="104.85000374992967" as="sourcePoint" />
            <mxPoint x="733.46" y="104.78999999999985" as="targetPoint" />
          </mxGeometry>
        </mxCell>
        <mxCell id="h0RpJ6YCT_kKpjxw3S6f-258" value="" style="endArrow=none;html=1;rounded=0;" edge="1" parent="1">
          <mxGeometry width="50" height="50" relative="1" as="geometry">
            <mxPoint x="432.84925001406225" y="104.8100037499297" as="sourcePoint" />
            <mxPoint x="412.85" y="104.74999999999989" as="targetPoint" />
          </mxGeometry>
        </mxCell>
        <mxCell id="h0RpJ6YCT_kKpjxw3S6f-259" value="" style="endArrow=none;html=1;rounded=0;" edge="1" parent="1">
          <mxGeometry width="50" height="50" relative="1" as="geometry">
            <mxPoint x="418.46" y="202.60999999999987" as="sourcePoint" />
            <mxPoint x="738.46" y="202.60999999999987" as="targetPoint" />
            <Array as="points">
              <mxPoint x="508.4599999999999" y="202.60999999999987" />
            </Array>
          </mxGeometry>
        </mxCell>
        <mxCell id="h0RpJ6YCT_kKpjxw3S6f-260" value="" style="endArrow=none;html=1;rounded=0;" edge="1" parent="1">
          <mxGeometry width="50" height="50" relative="1" as="geometry">
            <mxPoint x="418.46" y="322.6099999999999" as="sourcePoint" />
            <mxPoint x="738.46" y="322.6099999999999" as="targetPoint" />
          </mxGeometry>
        </mxCell>
        <mxCell id="h0RpJ6YCT_kKpjxw3S6f-262" value="" style="endArrow=none;html=1;rounded=0;" edge="1" parent="1">
          <mxGeometry width="50" height="50" relative="1" as="geometry">
            <mxPoint x="738.46" y="322.6099999999999" as="sourcePoint" />
            <mxPoint x="738.46" y="202.60999999999987" as="targetPoint" />
          </mxGeometry>
        </mxCell>
        <mxCell id="h0RpJ6YCT_kKpjxw3S6f-263" value="" style="ellipse;whiteSpace=wrap;html=1;aspect=fixed;" vertex="1" parent="1">
          <mxGeometry x="357.85" y="202.60999999999987" width="120" height="120" as="geometry" />
        </mxCell>
        <mxCell id="h0RpJ6YCT_kKpjxw3S6f-264" value="" style="ellipse;whiteSpace=wrap;html=1;aspect=fixed;" vertex="1" parent="1">
          <mxGeometry x="377.85" y="222.60999999999987" width="80" height="80" as="geometry" />
        </mxCell>
        <mxCell id="h0RpJ6YCT_kKpjxw3S6f-265" value="" style="endArrow=none;html=1;rounded=0;" edge="1" parent="1">
          <mxGeometry width="50" height="50" relative="1" as="geometry">
            <mxPoint x="417.42" y="322.6099999999999" as="sourcePoint" />
            <mxPoint x="417.42" y="202.60999999999987" as="targetPoint" />
          </mxGeometry>
        </mxCell>
        <mxCell id="h0RpJ6YCT_kKpjxw3S6f-266" value="" style="endArrow=none;html=1;rounded=0;" edge="1" parent="1">
          <mxGeometry width="50" height="50" relative="1" as="geometry">
            <mxPoint x="748.4592500140623" y="262.4600037499297" as="sourcePoint" />
            <mxPoint x="728.46" y="262.39999999999986" as="targetPoint" />
          </mxGeometry>
        </mxCell>
        <mxCell id="h0RpJ6YCT_kKpjxw3S6f-267" value="" style="endArrow=none;html=1;rounded=0;" edge="1" parent="1">
          <mxGeometry width="50" height="50" relative="1" as="geometry">
            <mxPoint x="427.84925001406225" y="262.4200037499297" as="sourcePoint" />
            <mxPoint x="407.85" y="262.3599999999999" as="targetPoint" />
          </mxGeometry>
        </mxCell>
        <mxCell id="h0RpJ6YCT_kKpjxw3S6f-268" value="" style="endArrow=none;html=1;rounded=0;" edge="1" parent="1">
          <mxGeometry width="50" height="50" relative="1" as="geometry">
            <mxPoint x="418.46" y="363.2299999999999" as="sourcePoint" />
            <mxPoint x="738.46" y="363.2299999999999" as="targetPoint" />
            <Array as="points">
              <mxPoint x="508.4599999999999" y="363.2299999999999" />
            </Array>
          </mxGeometry>
        </mxCell>
        <mxCell id="h0RpJ6YCT_kKpjxw3S6f-269" value="" style="endArrow=none;html=1;rounded=0;" edge="1" parent="1">
          <mxGeometry width="50" height="50" relative="1" as="geometry">
            <mxPoint x="418.46" y="483.2299999999999" as="sourcePoint" />
            <mxPoint x="738.46" y="483.2299999999999" as="targetPoint" />
          </mxGeometry>
        </mxCell>
        <mxCell id="h0RpJ6YCT_kKpjxw3S6f-271" value="" style="endArrow=none;html=1;rounded=0;" edge="1" parent="1">
          <mxGeometry width="50" height="50" relative="1" as="geometry">
            <mxPoint x="738.46" y="483.2299999999999" as="sourcePoint" />
            <mxPoint x="738.46" y="363.2299999999999" as="targetPoint" />
          </mxGeometry>
        </mxCell>
        <mxCell id="h0RpJ6YCT_kKpjxw3S6f-272" value="" style="ellipse;whiteSpace=wrap;html=1;aspect=fixed;" vertex="1" parent="1">
          <mxGeometry x="357.85" y="363.2299999999999" width="120" height="120" as="geometry" />
        </mxCell>
        <mxCell id="h0RpJ6YCT_kKpjxw3S6f-273" value="" style="ellipse;whiteSpace=wrap;html=1;aspect=fixed;" vertex="1" parent="1">
          <mxGeometry x="377.85" y="383.2299999999999" width="80" height="80" as="geometry" />
        </mxCell>
        <mxCell id="h0RpJ6YCT_kKpjxw3S6f-274" value="" style="endArrow=none;html=1;rounded=0;" edge="1" parent="1">
          <mxGeometry width="50" height="50" relative="1" as="geometry">
            <mxPoint x="417.42" y="483.2299999999999" as="sourcePoint" />
            <mxPoint x="417.42" y="363.2299999999999" as="targetPoint" />
          </mxGeometry>
        </mxCell>
        <mxCell id="h0RpJ6YCT_kKpjxw3S6f-275" value="" style="endArrow=none;html=1;rounded=0;" edge="1" parent="1">
          <mxGeometry width="50" height="50" relative="1" as="geometry">
            <mxPoint x="748.4592500140623" y="423.0800037499297" as="sourcePoint" />
            <mxPoint x="728.46" y="423.01999999999987" as="targetPoint" />
          </mxGeometry>
        </mxCell>
        <mxCell id="h0RpJ6YCT_kKpjxw3S6f-276" value="" style="endArrow=none;html=1;rounded=0;" edge="1" parent="1">
          <mxGeometry width="50" height="50" relative="1" as="geometry">
            <mxPoint x="427.84925001406225" y="423.0400037499297" as="sourcePoint" />
            <mxPoint x="407.85" y="422.9799999999999" as="targetPoint" />
          </mxGeometry>
        </mxCell>
        <mxCell id="h0RpJ6YCT_kKpjxw3S6f-277" value="" style="endArrow=none;html=1;rounded=0;" edge="1" parent="1">
          <mxGeometry width="50" height="50" relative="1" as="geometry">
            <mxPoint x="418.46" y="523.2299999999999" as="sourcePoint" />
            <mxPoint x="738.46" y="523.2299999999999" as="targetPoint" />
            <Array as="points">
              <mxPoint x="508.4599999999999" y="523.2299999999999" />
            </Array>
          </mxGeometry>
        </mxCell>
        <mxCell id="h0RpJ6YCT_kKpjxw3S6f-278" value="" style="endArrow=none;html=1;rounded=0;" edge="1" parent="1">
          <mxGeometry width="50" height="50" relative="1" as="geometry">
            <mxPoint x="418.46" y="643.2299999999999" as="sourcePoint" />
            <mxPoint x="738.46" y="643.2299999999999" as="targetPoint" />
          </mxGeometry>
        </mxCell>
        <mxCell id="h0RpJ6YCT_kKpjxw3S6f-279" value="" style="ellipse;whiteSpace=wrap;html=1;aspect=fixed;" vertex="1" parent="1">
          <mxGeometry x="678.46" y="523.2299999999999" width="120" height="120" as="geometry" />
        </mxCell>
        <mxCell id="h0RpJ6YCT_kKpjxw3S6f-280" value="" style="endArrow=none;html=1;rounded=0;" edge="1" parent="1">
          <mxGeometry width="50" height="50" relative="1" as="geometry">
            <mxPoint x="738.46" y="643.2299999999999" as="sourcePoint" />
            <mxPoint x="738.46" y="523.2299999999999" as="targetPoint" />
          </mxGeometry>
        </mxCell>
        <mxCell id="h0RpJ6YCT_kKpjxw3S6f-281" value="" style="ellipse;whiteSpace=wrap;html=1;aspect=fixed;" vertex="1" parent="1">
          <mxGeometry x="357.85" y="523.2299999999999" width="120" height="120" as="geometry" />
        </mxCell>
        <mxCell id="h0RpJ6YCT_kKpjxw3S6f-283" value="" style="endArrow=none;html=1;rounded=0;" edge="1" parent="1">
          <mxGeometry width="50" height="50" relative="1" as="geometry">
            <mxPoint x="417.42" y="643.2299999999999" as="sourcePoint" />
            <mxPoint x="417.42" y="523.2299999999999" as="targetPoint" />
          </mxGeometry>
        </mxCell>
        <mxCell id="h0RpJ6YCT_kKpjxw3S6f-284" value="" style="endArrow=none;html=1;rounded=0;" edge="1" parent="1">
          <mxGeometry width="50" height="50" relative="1" as="geometry">
            <mxPoint x="748.4592500140623" y="583.0800037499297" as="sourcePoint" />
            <mxPoint x="728.46" y="583.0199999999999" as="targetPoint" />
          </mxGeometry>
        </mxCell>
        <mxCell id="h0RpJ6YCT_kKpjxw3S6f-285" value="" style="endArrow=none;html=1;rounded=0;" edge="1" parent="1">
          <mxGeometry width="50" height="50" relative="1" as="geometry">
            <mxPoint x="427.84925001406225" y="583.0400037499297" as="sourcePoint" />
            <mxPoint x="407.85" y="582.9799999999999" as="targetPoint" />
          </mxGeometry>
        </mxCell>
        <mxCell id="h0RpJ6YCT_kKpjxw3S6f-290" value="" style="endArrow=none;html=1;rounded=0;" edge="1" parent="1">
          <mxGeometry width="50" height="50" relative="1" as="geometry">
            <mxPoint x="287.84925001406225" y="263.15000374992974" as="sourcePoint" />
            <mxPoint x="267.85" y="263.0899999999999" as="targetPoint" />
          </mxGeometry>
        </mxCell>
        <mxCell id="h0RpJ6YCT_kKpjxw3S6f-291" value="" style="endArrow=none;html=1;rounded=0;" edge="1" parent="1">
          <mxGeometry width="50" height="50" relative="1" as="geometry">
            <mxPoint x="287.84925001406225" y="423.15000374992974" as="sourcePoint" />
            <mxPoint x="267.85" y="423.0899999999999" as="targetPoint" />
          </mxGeometry>
        </mxCell>
        <mxCell id="h0RpJ6YCT_kKpjxw3S6f-292" value="" style="endArrow=none;html=1;rounded=0;" edge="1" parent="1">
          <mxGeometry width="50" height="50" relative="1" as="geometry">
            <mxPoint x="278" y="433.30000000000007" as="sourcePoint" />
            <mxPoint x="277.71000000000004" y="413.15999999999997" as="targetPoint" />
          </mxGeometry>
        </mxCell>
        <mxCell id="h0RpJ6YCT_kKpjxw3S6f-293" value="" style="endArrow=none;html=1;rounded=0;" edge="1" parent="1">
          <mxGeometry width="50" height="50" relative="1" as="geometry">
            <mxPoint x="278" y="273.30000000000007" as="sourcePoint" />
            <mxPoint x="277.71000000000004" y="253.15999999999994" as="targetPoint" />
          </mxGeometry>
        </mxCell>
        <mxCell id="h0RpJ6YCT_kKpjxw3S6f-294" value="" style="endArrow=none;html=1;rounded=0;" edge="1" parent="1">
          <mxGeometry width="50" height="50" relative="1" as="geometry">
            <mxPoint x="37.85" y="243.23" as="sourcePoint" />
            <mxPoint x="215.7" y="243.23" as="targetPoint" />
          </mxGeometry>
        </mxCell>
        <mxCell id="h0RpJ6YCT_kKpjxw3S6f-295" value="" style="endArrow=none;html=1;rounded=0;" edge="1" parent="1">
          <mxGeometry width="50" height="50" relative="1" as="geometry">
            <mxPoint x="37.85" y="283.23" as="sourcePoint" />
            <mxPoint x="212.85" y="283.23" as="targetPoint" />
          </mxGeometry>
        </mxCell>
        <mxCell id="h0RpJ6YCT_kKpjxw3S6f-296" value="" style="endArrow=none;html=1;rounded=0;" edge="1" parent="1">
          <mxGeometry width="50" height="50" relative="1" as="geometry">
            <mxPoint x="37.85" y="443.23" as="sourcePoint" />
            <mxPoint x="212.85" y="443.23" as="targetPoint" />
          </mxGeometry>
        </mxCell>
        <mxCell id="h0RpJ6YCT_kKpjxw3S6f-297" value="" style="endArrow=none;html=1;rounded=0;" edge="1" parent="1">
          <mxGeometry width="50" height="50" relative="1" as="geometry">
            <mxPoint x="37.85" y="403.23" as="sourcePoint" />
            <mxPoint x="215.7" y="403.23" as="targetPoint" />
          </mxGeometry>
        </mxCell>
        <mxCell id="h0RpJ6YCT_kKpjxw3S6f-298" value="" style="endArrow=none;html=1;rounded=0;" edge="1" parent="1">
          <mxGeometry width="50" height="50" relative="1" as="geometry">
            <mxPoint x="37.85" y="221.23" as="sourcePoint" />
            <mxPoint x="227.85" y="220.73" as="targetPoint" />
          </mxGeometry>
        </mxCell>
        <mxCell id="h0RpJ6YCT_kKpjxw3S6f-299" value="" style="endArrow=none;html=1;rounded=0;" edge="1" parent="1">
          <mxGeometry width="50" height="50" relative="1" as="geometry">
            <mxPoint x="37.85" y="302.61" as="sourcePoint" />
            <mxPoint x="212.85" y="302.61" as="targetPoint" />
          </mxGeometry>
        </mxCell>
        <mxCell id="h0RpJ6YCT_kKpjxw3S6f-300" value="" style="endArrow=none;html=1;rounded=0;" edge="1" parent="1">
          <mxGeometry width="50" height="50" relative="1" as="geometry">
            <mxPoint x="37.85" y="462.61" as="sourcePoint" />
            <mxPoint x="212.85" y="462.61" as="targetPoint" />
          </mxGeometry>
        </mxCell>
        <mxCell id="h0RpJ6YCT_kKpjxw3S6f-301" value="" style="endArrow=none;html=1;rounded=0;" edge="1" parent="1">
          <mxGeometry width="50" height="50" relative="1" as="geometry">
            <mxPoint x="37.85" y="383.11" as="sourcePoint" />
            <mxPoint x="227.85" y="382.61" as="targetPoint" />
          </mxGeometry>
        </mxCell>
        <mxCell id="h0RpJ6YCT_kKpjxw3S6f-302" value="" style="endArrow=none;html=1;rounded=0;" edge="1" parent="1">
          <mxGeometry width="50" height="50" relative="1" as="geometry">
            <mxPoint x="457.85" y="383.23" as="sourcePoint" />
            <mxPoint x="697.85" y="383.23" as="targetPoint" />
            <Array as="points">
              <mxPoint x="647.2" y="383.23" />
            </Array>
          </mxGeometry>
        </mxCell>
        <mxCell id="h0RpJ6YCT_kKpjxw3S6f-303" value="" style="endArrow=none;html=1;rounded=0;" edge="1" parent="1">
          <mxGeometry width="50" height="50" relative="1" as="geometry">
            <mxPoint x="457.85" y="463.23" as="sourcePoint" />
            <mxPoint x="677.85" y="463.23" as="targetPoint" />
            <Array as="points">
              <mxPoint x="647.2" y="463.23" />
            </Array>
          </mxGeometry>
        </mxCell>
        <mxCell id="h0RpJ6YCT_kKpjxw3S6f-304" value="" style="endArrow=none;html=1;rounded=0;" edge="1" parent="1">
          <mxGeometry width="50" height="50" relative="1" as="geometry">
            <mxPoint x="467.85" y="403.23" as="sourcePoint" />
            <mxPoint x="687.85" y="403.23" as="targetPoint" />
            <Array as="points">
              <mxPoint x="657.2" y="403.23" />
            </Array>
          </mxGeometry>
        </mxCell>
        <mxCell id="h0RpJ6YCT_kKpjxw3S6f-305" value="" style="endArrow=none;html=1;rounded=0;" edge="1" parent="1">
          <mxGeometry width="50" height="50" relative="1" as="geometry">
            <mxPoint x="467.85" y="443.23" as="sourcePoint" />
            <mxPoint x="677.85" y="443.23" as="targetPoint" />
            <Array as="points">
              <mxPoint x="657.2" y="443.23" />
            </Array>
          </mxGeometry>
        </mxCell>
        <mxCell id="h0RpJ6YCT_kKpjxw3S6f-313" value="" style="endArrow=none;html=1;rounded=0;" edge="1" parent="1">
          <mxGeometry width="50" height="50" relative="1" as="geometry">
            <mxPoint x="457.85" y="222.60999999999999" as="sourcePoint" />
            <mxPoint x="697.85" y="222.60999999999999" as="targetPoint" />
            <Array as="points">
              <mxPoint x="647.2" y="222.60999999999999" />
            </Array>
          </mxGeometry>
        </mxCell>
        <mxCell id="h0RpJ6YCT_kKpjxw3S6f-314" value="" style="endArrow=none;html=1;rounded=0;" edge="1" parent="1">
          <mxGeometry width="50" height="50" relative="1" as="geometry">
            <mxPoint x="457.85" y="302.61" as="sourcePoint" />
            <mxPoint x="677.85" y="302.23" as="targetPoint" />
            <Array as="points">
              <mxPoint x="647.2" y="302.61" />
            </Array>
          </mxGeometry>
        </mxCell>
        <mxCell id="h0RpJ6YCT_kKpjxw3S6f-315" value="" style="endArrow=none;html=1;rounded=0;" edge="1" parent="1">
          <mxGeometry width="50" height="50" relative="1" as="geometry">
            <mxPoint x="467.85" y="242.60999999999999" as="sourcePoint" />
            <mxPoint x="687.85" y="242.60999999999999" as="targetPoint" />
            <Array as="points">
              <mxPoint x="657.2" y="242.60999999999999" />
            </Array>
          </mxGeometry>
        </mxCell>
        <mxCell id="h0RpJ6YCT_kKpjxw3S6f-316" value="" style="endArrow=none;html=1;rounded=0;" edge="1" parent="1">
          <mxGeometry width="50" height="50" relative="1" as="geometry">
            <mxPoint x="467.85" y="282.61" as="sourcePoint" />
            <mxPoint x="677.85" y="282.23" as="targetPoint" />
            <Array as="points">
              <mxPoint x="657.2" y="282.61" />
            </Array>
          </mxGeometry>
        </mxCell>
        <mxCell id="h0RpJ6YCT_kKpjxw3S6f-317" value="" style="endArrow=none;html=1;rounded=0;" edge="1" parent="1">
          <mxGeometry width="50" height="50" relative="1" as="geometry">
            <mxPoint x="482.85" y="643.23" as="sourcePoint" />
            <mxPoint x="482.85" y="584.48" as="targetPoint" />
          </mxGeometry>
        </mxCell>
        <mxCell id="h0RpJ6YCT_kKpjxw3S6f-318" value="" style="endArrow=none;html=1;rounded=0;" edge="1" parent="1">
          <mxGeometry width="50" height="50" relative="1" as="geometry">
            <mxPoint x="487.85" y="163.75" as="sourcePoint" />
            <mxPoint x="487.85" y="105" as="targetPoint" />
          </mxGeometry>
        </mxCell>
        <mxCell id="h0RpJ6YCT_kKpjxw3S6f-320" value="" style="endArrow=none;html=1;rounded=0;" edge="1" parent="1">
          <mxGeometry width="50" height="50" relative="1" as="geometry">
            <mxPoint x="673.46" y="321.98" as="sourcePoint" />
            <mxPoint x="673.46" y="263.23" as="targetPoint" />
          </mxGeometry>
        </mxCell>
        <mxCell id="h0RpJ6YCT_kKpjxw3S6f-322" value="" style="endArrow=none;html=1;rounded=0;" edge="1" parent="1">
          <mxGeometry width="50" height="50" relative="1" as="geometry">
            <mxPoint x="672.87" y="483.23" as="sourcePoint" />
            <mxPoint x="672.87" y="424.48" as="targetPoint" />
          </mxGeometry>
        </mxCell>
        <mxCell id="h0RpJ6YCT_kKpjxw3S6f-323" value="" style="ellipse;whiteSpace=wrap;html=1;aspect=fixed;" vertex="1" parent="1">
          <mxGeometry x="842.85" y="48.33000000000004" width="120" height="120" as="geometry" />
        </mxCell>
        <mxCell id="h0RpJ6YCT_kKpjxw3S6f-324" value="" style="ellipse;whiteSpace=wrap;html=1;aspect=fixed;" vertex="1" parent="1">
          <mxGeometry x="1022.85" y="48.33000000000004" width="120" height="120" as="geometry" />
        </mxCell>
        <mxCell id="h0RpJ6YCT_kKpjxw3S6f-326" value="" style="endArrow=none;html=1;rounded=0;" edge="1" parent="1">
          <mxGeometry width="50" height="50" relative="1" as="geometry">
            <mxPoint x="992.85" y="48.33000000000004" as="sourcePoint" />
            <mxPoint x="902.85" y="48.33000000000004" as="targetPoint" />
            <Array as="points">
              <mxPoint x="1082.85" y="48.33000000000004" />
            </Array>
          </mxGeometry>
        </mxCell>
        <mxCell id="h0RpJ6YCT_kKpjxw3S6f-327" value="" style="endArrow=none;html=1;rounded=0;" edge="1" parent="1">
          <mxGeometry width="50" height="50" relative="1" as="geometry">
            <mxPoint x="1082.85" y="168.33000000000004" as="sourcePoint" />
            <mxPoint x="1082.85" y="48.33000000000004" as="targetPoint" />
          </mxGeometry>
        </mxCell>
        <mxCell id="h0RpJ6YCT_kKpjxw3S6f-328" value="" style="endArrow=none;html=1;rounded=0;" edge="1" parent="1">
          <mxGeometry width="50" height="50" relative="1" as="geometry">
            <mxPoint x="902.85" y="168.33000000000004" as="sourcePoint" />
            <mxPoint x="902.85" y="48.33000000000004" as="targetPoint" />
          </mxGeometry>
        </mxCell>
        <mxCell id="h0RpJ6YCT_kKpjxw3S6f-329" value="" style="endArrow=none;html=1;rounded=0;" edge="1" parent="1">
          <mxGeometry width="50" height="50" relative="1" as="geometry">
            <mxPoint x="992.85" y="168.33000000000004" as="sourcePoint" />
            <mxPoint x="902.85" y="168.33000000000004" as="targetPoint" />
            <Array as="points">
              <mxPoint x="1082.85" y="168.33000000000004" />
            </Array>
          </mxGeometry>
        </mxCell>
        <mxCell id="h0RpJ6YCT_kKpjxw3S6f-330" value="" style="endArrow=none;html=1;rounded=0;" edge="1" parent="1">
          <mxGeometry width="50" height="50" relative="1" as="geometry">
            <mxPoint x="1092.8492500140621" y="109.01000374992975" as="sourcePoint" />
            <mxPoint x="1072.85" y="108.94999999999993" as="targetPoint" />
          </mxGeometry>
        </mxCell>
        <mxCell id="h0RpJ6YCT_kKpjxw3S6f-331" value="" style="endArrow=none;html=1;rounded=0;" edge="1" parent="1">
          <mxGeometry width="50" height="50" relative="1" as="geometry">
            <mxPoint x="912.8492500140622" y="108.21000374992957" as="sourcePoint" />
            <mxPoint x="892.85" y="108.14999999999998" as="targetPoint" />
          </mxGeometry>
        </mxCell>
        <mxCell id="h0RpJ6YCT_kKpjxw3S6f-332" value="" style="ellipse;whiteSpace=wrap;html=1;aspect=fixed;" vertex="1" parent="1">
          <mxGeometry x="838.33" y="199.38000000000002" width="120" height="120" as="geometry" />
        </mxCell>
        <mxCell id="h0RpJ6YCT_kKpjxw3S6f-333" value="" style="ellipse;whiteSpace=wrap;html=1;aspect=fixed;" vertex="1" parent="1">
          <mxGeometry x="1018.33" y="199.38000000000002" width="120" height="120" as="geometry" />
        </mxCell>
        <mxCell id="h0RpJ6YCT_kKpjxw3S6f-334" value="" style="ellipse;whiteSpace=wrap;html=1;aspect=fixed;" vertex="1" parent="1">
          <mxGeometry x="858.33" y="219.38000000000002" width="80" height="80" as="geometry" />
        </mxCell>
        <mxCell id="h0RpJ6YCT_kKpjxw3S6f-335" value="" style="endArrow=none;html=1;rounded=0;" edge="1" parent="1">
          <mxGeometry width="50" height="50" relative="1" as="geometry">
            <mxPoint x="988.33" y="199.38000000000002" as="sourcePoint" />
            <mxPoint x="898.33" y="199.38000000000002" as="targetPoint" />
            <Array as="points">
              <mxPoint x="1078.33" y="199.38000000000002" />
            </Array>
          </mxGeometry>
        </mxCell>
        <mxCell id="h0RpJ6YCT_kKpjxw3S6f-336" value="" style="endArrow=none;html=1;rounded=0;" edge="1" parent="1">
          <mxGeometry width="50" height="50" relative="1" as="geometry">
            <mxPoint x="1078.33" y="319.3800000000001" as="sourcePoint" />
            <mxPoint x="1078.33" y="199.38000000000002" as="targetPoint" />
          </mxGeometry>
        </mxCell>
        <mxCell id="h0RpJ6YCT_kKpjxw3S6f-337" value="" style="endArrow=none;html=1;rounded=0;" edge="1" parent="1">
          <mxGeometry width="50" height="50" relative="1" as="geometry">
            <mxPoint x="898.33" y="319.3800000000001" as="sourcePoint" />
            <mxPoint x="898.33" y="199.38000000000002" as="targetPoint" />
          </mxGeometry>
        </mxCell>
        <mxCell id="h0RpJ6YCT_kKpjxw3S6f-338" value="" style="endArrow=none;html=1;rounded=0;" edge="1" parent="1">
          <mxGeometry width="50" height="50" relative="1" as="geometry">
            <mxPoint x="988.33" y="319.3800000000001" as="sourcePoint" />
            <mxPoint x="898.33" y="319.3800000000001" as="targetPoint" />
            <Array as="points">
              <mxPoint x="1078.33" y="319.3800000000001" />
            </Array>
          </mxGeometry>
        </mxCell>
        <mxCell id="h0RpJ6YCT_kKpjxw3S6f-339" value="" style="endArrow=none;html=1;rounded=0;" edge="1" parent="1">
          <mxGeometry width="50" height="50" relative="1" as="geometry">
            <mxPoint x="1088.3292500140624" y="260.06000374992976" as="sourcePoint" />
            <mxPoint x="1068.33" y="259.99999999999994" as="targetPoint" />
          </mxGeometry>
        </mxCell>
        <mxCell id="h0RpJ6YCT_kKpjxw3S6f-340" value="" style="endArrow=none;html=1;rounded=0;" edge="1" parent="1">
          <mxGeometry width="50" height="50" relative="1" as="geometry">
            <mxPoint x="908.3292500140623" y="259.2600037499296" as="sourcePoint" />
            <mxPoint x="888.33" y="259.2" as="targetPoint" />
          </mxGeometry>
        </mxCell>
        <mxCell id="h0RpJ6YCT_kKpjxw3S6f-341" value="" style="ellipse;whiteSpace=wrap;html=1;aspect=fixed;" vertex="1" parent="1">
          <mxGeometry x="838.3299999999999" y="360" width="120" height="120" as="geometry" />
        </mxCell>
        <mxCell id="h0RpJ6YCT_kKpjxw3S6f-342" value="" style="ellipse;whiteSpace=wrap;html=1;aspect=fixed;" vertex="1" parent="1">
          <mxGeometry x="1018.3299999999999" y="360" width="120" height="120" as="geometry" />
        </mxCell>
        <mxCell id="h0RpJ6YCT_kKpjxw3S6f-343" value="" style="ellipse;whiteSpace=wrap;html=1;aspect=fixed;" vertex="1" parent="1">
          <mxGeometry x="858.3299999999999" y="380" width="80" height="80" as="geometry" />
        </mxCell>
        <mxCell id="h0RpJ6YCT_kKpjxw3S6f-344" value="" style="endArrow=none;html=1;rounded=0;" edge="1" parent="1">
          <mxGeometry width="50" height="50" relative="1" as="geometry">
            <mxPoint x="988.3299999999999" y="360" as="sourcePoint" />
            <mxPoint x="898.3299999999999" y="360" as="targetPoint" />
            <Array as="points">
              <mxPoint x="1078.33" y="360" />
            </Array>
          </mxGeometry>
        </mxCell>
        <mxCell id="h0RpJ6YCT_kKpjxw3S6f-345" value="" style="endArrow=none;html=1;rounded=0;" edge="1" parent="1">
          <mxGeometry width="50" height="50" relative="1" as="geometry">
            <mxPoint x="1078.33" y="480" as="sourcePoint" />
            <mxPoint x="1078.33" y="360" as="targetPoint" />
          </mxGeometry>
        </mxCell>
        <mxCell id="h0RpJ6YCT_kKpjxw3S6f-346" value="" style="endArrow=none;html=1;rounded=0;" edge="1" parent="1">
          <mxGeometry width="50" height="50" relative="1" as="geometry">
            <mxPoint x="898.3299999999999" y="480" as="sourcePoint" />
            <mxPoint x="898.3299999999999" y="360" as="targetPoint" />
          </mxGeometry>
        </mxCell>
        <mxCell id="h0RpJ6YCT_kKpjxw3S6f-347" value="" style="endArrow=none;html=1;rounded=0;" edge="1" parent="1">
          <mxGeometry width="50" height="50" relative="1" as="geometry">
            <mxPoint x="988.3299999999999" y="480" as="sourcePoint" />
            <mxPoint x="898.3299999999999" y="480" as="targetPoint" />
            <Array as="points">
              <mxPoint x="1078.33" y="480" />
            </Array>
          </mxGeometry>
        </mxCell>
        <mxCell id="h0RpJ6YCT_kKpjxw3S6f-348" value="" style="endArrow=none;html=1;rounded=0;" edge="1" parent="1">
          <mxGeometry width="50" height="50" relative="1" as="geometry">
            <mxPoint x="1088.3292500140622" y="420.6800037499297" as="sourcePoint" />
            <mxPoint x="1068.33" y="420.6199999999999" as="targetPoint" />
          </mxGeometry>
        </mxCell>
        <mxCell id="h0RpJ6YCT_kKpjxw3S6f-349" value="" style="endArrow=none;html=1;rounded=0;" edge="1" parent="1">
          <mxGeometry width="50" height="50" relative="1" as="geometry">
            <mxPoint x="908.3292500140622" y="419.88000374992953" as="sourcePoint" />
            <mxPoint x="888.3299999999999" y="419.81999999999994" as="targetPoint" />
          </mxGeometry>
        </mxCell>
        <mxCell id="h0RpJ6YCT_kKpjxw3S6f-350" value="" style="ellipse;whiteSpace=wrap;html=1;aspect=fixed;" vertex="1" parent="1">
          <mxGeometry x="838.33" y="521.46" width="120" height="120" as="geometry" />
        </mxCell>
        <mxCell id="h0RpJ6YCT_kKpjxw3S6f-351" value="" style="ellipse;whiteSpace=wrap;html=1;aspect=fixed;" vertex="1" parent="1">
          <mxGeometry x="1018.33" y="521.46" width="120" height="120" as="geometry" />
        </mxCell>
        <mxCell id="h0RpJ6YCT_kKpjxw3S6f-353" value="" style="endArrow=none;html=1;rounded=0;" edge="1" parent="1">
          <mxGeometry width="50" height="50" relative="1" as="geometry">
            <mxPoint x="988.33" y="521.46" as="sourcePoint" />
            <mxPoint x="898.33" y="521.46" as="targetPoint" />
            <Array as="points">
              <mxPoint x="1078.33" y="521.46" />
            </Array>
          </mxGeometry>
        </mxCell>
        <mxCell id="h0RpJ6YCT_kKpjxw3S6f-354" value="" style="endArrow=none;html=1;rounded=0;" edge="1" parent="1">
          <mxGeometry width="50" height="50" relative="1" as="geometry">
            <mxPoint x="1078.33" y="641.46" as="sourcePoint" />
            <mxPoint x="1078.33" y="521.46" as="targetPoint" />
          </mxGeometry>
        </mxCell>
        <mxCell id="h0RpJ6YCT_kKpjxw3S6f-355" value="" style="endArrow=none;html=1;rounded=0;" edge="1" parent="1">
          <mxGeometry width="50" height="50" relative="1" as="geometry">
            <mxPoint x="898.33" y="641.46" as="sourcePoint" />
            <mxPoint x="898.33" y="521.46" as="targetPoint" />
          </mxGeometry>
        </mxCell>
        <mxCell id="h0RpJ6YCT_kKpjxw3S6f-356" value="" style="endArrow=none;html=1;rounded=0;" edge="1" parent="1">
          <mxGeometry width="50" height="50" relative="1" as="geometry">
            <mxPoint x="988.33" y="641.46" as="sourcePoint" />
            <mxPoint x="898.33" y="641.46" as="targetPoint" />
            <Array as="points">
              <mxPoint x="1078.33" y="641.46" />
            </Array>
          </mxGeometry>
        </mxCell>
        <mxCell id="h0RpJ6YCT_kKpjxw3S6f-357" value="" style="endArrow=none;html=1;rounded=0;" edge="1" parent="1">
          <mxGeometry width="50" height="50" relative="1" as="geometry">
            <mxPoint x="1088.3292500140624" y="582.1400037499297" as="sourcePoint" />
            <mxPoint x="1068.33" y="582.0799999999999" as="targetPoint" />
          </mxGeometry>
        </mxCell>
        <mxCell id="h0RpJ6YCT_kKpjxw3S6f-358" value="" style="endArrow=none;html=1;rounded=0;" edge="1" parent="1">
          <mxGeometry width="50" height="50" relative="1" as="geometry">
            <mxPoint x="908.3292500140623" y="581.3400037499296" as="sourcePoint" />
            <mxPoint x="888.33" y="581.28" as="targetPoint" />
          </mxGeometry>
        </mxCell>
        <mxCell id="h0RpJ6YCT_kKpjxw3S6f-361" value="" style="endArrow=none;html=1;rounded=0;" edge="1" parent="1">
          <mxGeometry width="50" height="50" relative="1" as="geometry">
            <mxPoint x="1020" y="460" as="sourcePoint" />
            <mxPoint x="938.3299999999999" y="460.42999999999995" as="targetPoint" />
            <Array as="points" />
          </mxGeometry>
        </mxCell>
        <mxCell id="h0RpJ6YCT_kKpjxw3S6f-362" value="" style="endArrow=none;html=1;rounded=0;" edge="1" parent="1">
          <mxGeometry width="50" height="50" relative="1" as="geometry">
            <mxPoint x="1040" y="380" as="sourcePoint" />
            <mxPoint x="938.3299999999999" y="380.42999999999995" as="targetPoint" />
            <Array as="points" />
          </mxGeometry>
        </mxCell>
        <mxCell id="h0RpJ6YCT_kKpjxw3S6f-363" value="" style="endArrow=none;html=1;rounded=0;" edge="1" parent="1">
          <mxGeometry width="50" height="50" relative="1" as="geometry">
            <mxPoint x="1020" y="440" as="sourcePoint" />
            <mxPoint x="948.3299999999999" y="440.42999999999995" as="targetPoint" />
            <Array as="points" />
          </mxGeometry>
        </mxCell>
        <mxCell id="h0RpJ6YCT_kKpjxw3S6f-364" value="" style="endArrow=none;html=1;rounded=0;" edge="1" parent="1">
          <mxGeometry width="50" height="50" relative="1" as="geometry">
            <mxPoint x="1030" y="400" as="sourcePoint" />
            <mxPoint x="948.3299999999999" y="400.42999999999995" as="targetPoint" />
            <Array as="points" />
          </mxGeometry>
        </mxCell>
        <mxCell id="h0RpJ6YCT_kKpjxw3S6f-365" value="" style="endArrow=none;html=1;rounded=0;" edge="1" parent="1">
          <mxGeometry width="50" height="50" relative="1" as="geometry">
            <mxPoint x="1020" y="297" as="sourcePoint" />
            <mxPoint x="938.33" y="297.0999999999999" as="targetPoint" />
            <Array as="points" />
          </mxGeometry>
        </mxCell>
        <mxCell id="h0RpJ6YCT_kKpjxw3S6f-366" value="" style="endArrow=none;html=1;rounded=0;" edge="1" parent="1">
          <mxGeometry width="50" height="50" relative="1" as="geometry">
            <mxPoint x="1040" y="216.67" as="sourcePoint" />
            <mxPoint x="938.33" y="217.09999999999994" as="targetPoint" />
            <Array as="points" />
          </mxGeometry>
        </mxCell>
        <mxCell id="h0RpJ6YCT_kKpjxw3S6f-367" value="" style="endArrow=none;html=1;rounded=0;" edge="1" parent="1">
          <mxGeometry width="50" height="50" relative="1" as="geometry">
            <mxPoint x="1030" y="276.6700000000001" as="sourcePoint" />
            <mxPoint x="948.33" y="277.0999999999999" as="targetPoint" />
            <Array as="points" />
          </mxGeometry>
        </mxCell>
        <mxCell id="h0RpJ6YCT_kKpjxw3S6f-368" value="" style="endArrow=none;html=1;rounded=0;" edge="1" parent="1">
          <mxGeometry width="50" height="50" relative="1" as="geometry">
            <mxPoint x="1030" y="236.67" as="sourcePoint" />
            <mxPoint x="948.33" y="237.09999999999994" as="targetPoint" />
            <Array as="points" />
          </mxGeometry>
        </mxCell>
        <mxCell id="h0RpJ6YCT_kKpjxw3S6f-373" value="" style="ellipse;whiteSpace=wrap;html=1;aspect=fixed;" vertex="1" parent="1">
          <mxGeometry x="1321.8899999999999" y="199.38" width="120" height="120" as="geometry" />
        </mxCell>
        <mxCell id="h0RpJ6YCT_kKpjxw3S6f-374" value="" style="endArrow=none;html=1;rounded=0;" edge="1" parent="1">
          <mxGeometry width="50" height="50" relative="1" as="geometry">
            <mxPoint x="1241.8899999999999" y="199.38" as="sourcePoint" />
            <mxPoint x="1381.8899999999999" y="199.38" as="targetPoint" />
            <Array as="points" />
          </mxGeometry>
        </mxCell>
        <mxCell id="h0RpJ6YCT_kKpjxw3S6f-375" value="" style="endArrow=none;html=1;rounded=0;" edge="1" parent="1">
          <mxGeometry width="50" height="50" relative="1" as="geometry">
            <mxPoint x="1381.8899999999999" y="319.38" as="sourcePoint" />
            <mxPoint x="1381.8899999999999" y="199.38" as="targetPoint" />
          </mxGeometry>
        </mxCell>
        <mxCell id="h0RpJ6YCT_kKpjxw3S6f-376" value="" style="endArrow=none;html=1;rounded=0;" edge="1" parent="1">
          <mxGeometry width="50" height="50" relative="1" as="geometry">
            <mxPoint x="1441.8899999999999" y="259.38" as="sourcePoint" />
            <mxPoint x="1441.8899999999999" y="199.38" as="targetPoint" />
          </mxGeometry>
        </mxCell>
        <mxCell id="h0RpJ6YCT_kKpjxw3S6f-377" value="" style="endArrow=none;html=1;rounded=0;" edge="1" parent="1">
          <mxGeometry width="50" height="50" relative="1" as="geometry">
            <mxPoint x="1441.8899999999999" y="199.38" as="sourcePoint" />
            <mxPoint x="1381.8899999999999" y="199.38" as="targetPoint" />
          </mxGeometry>
        </mxCell>
        <mxCell id="h0RpJ6YCT_kKpjxw3S6f-378" value="" style="endArrow=none;html=1;rounded=0;" edge="1" parent="1">
          <mxGeometry width="50" height="50" relative="1" as="geometry">
            <mxPoint x="1241.8899999999999" y="319.38" as="sourcePoint" />
            <mxPoint x="1381.8899999999999" y="319.38" as="targetPoint" />
            <Array as="points">
              <mxPoint x="1310.6799999999998" y="319.38" />
            </Array>
          </mxGeometry>
        </mxCell>
        <mxCell id="h0RpJ6YCT_kKpjxw3S6f-379" value="" style="ellipse;whiteSpace=wrap;html=1;aspect=fixed;" vertex="1" parent="1">
          <mxGeometry x="1181.8899999999999" y="199.38" width="120" height="120" as="geometry" />
        </mxCell>
        <mxCell id="h0RpJ6YCT_kKpjxw3S6f-380" value="" style="ellipse;whiteSpace=wrap;html=1;aspect=fixed;" vertex="1" parent="1">
          <mxGeometry x="1201.8899999999999" y="219.38" width="80" height="80" as="geometry" />
        </mxCell>
        <mxCell id="h0RpJ6YCT_kKpjxw3S6f-381" value="" style="endArrow=none;html=1;rounded=0;" edge="1" parent="1">
          <mxGeometry width="50" height="50" relative="1" as="geometry">
            <mxPoint x="1241.8899999999999" y="319.38" as="sourcePoint" />
            <mxPoint x="1241.8899999999999" y="199.38" as="targetPoint" />
          </mxGeometry>
        </mxCell>
        <mxCell id="h0RpJ6YCT_kKpjxw3S6f-382" value="" style="endArrow=none;html=1;rounded=0;" edge="1" parent="1">
          <mxGeometry width="50" height="50" relative="1" as="geometry">
            <mxPoint x="1251.889250014062" y="260.13000374992987" as="sourcePoint" />
            <mxPoint x="1231.8899999999999" y="260.07000000000005" as="targetPoint" />
          </mxGeometry>
        </mxCell>
        <mxCell id="h0RpJ6YCT_kKpjxw3S6f-383" value="" style="ellipse;whiteSpace=wrap;html=1;aspect=fixed;" vertex="1" parent="1">
          <mxGeometry x="1321.8899999999999" y="359.9999999999999" width="120" height="120" as="geometry" />
        </mxCell>
        <mxCell id="h0RpJ6YCT_kKpjxw3S6f-384" value="" style="endArrow=none;html=1;rounded=0;" edge="1" parent="1">
          <mxGeometry width="50" height="50" relative="1" as="geometry">
            <mxPoint x="1241.8899999999999" y="359.9999999999999" as="sourcePoint" />
            <mxPoint x="1381.8899999999999" y="359.9999999999999" as="targetPoint" />
            <Array as="points" />
          </mxGeometry>
        </mxCell>
        <mxCell id="h0RpJ6YCT_kKpjxw3S6f-385" value="" style="endArrow=none;html=1;rounded=0;" edge="1" parent="1">
          <mxGeometry width="50" height="50" relative="1" as="geometry">
            <mxPoint x="1381.8899999999999" y="479.9999999999999" as="sourcePoint" />
            <mxPoint x="1381.8899999999999" y="359.9999999999999" as="targetPoint" />
          </mxGeometry>
        </mxCell>
        <mxCell id="h0RpJ6YCT_kKpjxw3S6f-386" value="" style="endArrow=none;html=1;rounded=0;" edge="1" parent="1">
          <mxGeometry width="50" height="50" relative="1" as="geometry">
            <mxPoint x="1441.8899999999999" y="419.9999999999999" as="sourcePoint" />
            <mxPoint x="1441.8899999999999" y="359.9999999999999" as="targetPoint" />
          </mxGeometry>
        </mxCell>
        <mxCell id="h0RpJ6YCT_kKpjxw3S6f-387" value="" style="endArrow=none;html=1;rounded=0;" edge="1" parent="1">
          <mxGeometry width="50" height="50" relative="1" as="geometry">
            <mxPoint x="1441.8899999999999" y="359.9999999999999" as="sourcePoint" />
            <mxPoint x="1381.8899999999999" y="359.9999999999999" as="targetPoint" />
          </mxGeometry>
        </mxCell>
        <mxCell id="h0RpJ6YCT_kKpjxw3S6f-388" value="" style="endArrow=none;html=1;rounded=0;" edge="1" parent="1">
          <mxGeometry width="50" height="50" relative="1" as="geometry">
            <mxPoint x="1241.8899999999999" y="479.9999999999999" as="sourcePoint" />
            <mxPoint x="1381.8899999999999" y="479.9999999999999" as="targetPoint" />
            <Array as="points">
              <mxPoint x="1310.6799999999998" y="479.9999999999999" />
            </Array>
          </mxGeometry>
        </mxCell>
        <mxCell id="h0RpJ6YCT_kKpjxw3S6f-389" value="" style="ellipse;whiteSpace=wrap;html=1;aspect=fixed;" vertex="1" parent="1">
          <mxGeometry x="1181.8899999999999" y="359.9999999999999" width="120" height="120" as="geometry" />
        </mxCell>
        <mxCell id="h0RpJ6YCT_kKpjxw3S6f-390" value="" style="ellipse;whiteSpace=wrap;html=1;aspect=fixed;" vertex="1" parent="1">
          <mxGeometry x="1201.8899999999999" y="379.9999999999999" width="80" height="80" as="geometry" />
        </mxCell>
        <mxCell id="h0RpJ6YCT_kKpjxw3S6f-391" value="" style="endArrow=none;html=1;rounded=0;" edge="1" parent="1">
          <mxGeometry width="50" height="50" relative="1" as="geometry">
            <mxPoint x="1241.8899999999999" y="479.9999999999999" as="sourcePoint" />
            <mxPoint x="1241.8899999999999" y="359.9999999999999" as="targetPoint" />
          </mxGeometry>
        </mxCell>
        <mxCell id="h0RpJ6YCT_kKpjxw3S6f-392" value="" style="endArrow=none;html=1;rounded=0;" edge="1" parent="1">
          <mxGeometry width="50" height="50" relative="1" as="geometry">
            <mxPoint x="1251.889250014062" y="420.75000374992976" as="sourcePoint" />
            <mxPoint x="1231.8899999999999" y="420.68999999999994" as="targetPoint" />
          </mxGeometry>
        </mxCell>
        <mxCell id="h0RpJ6YCT_kKpjxw3S6f-393" value="" style="ellipse;whiteSpace=wrap;html=1;aspect=fixed;" vertex="1" parent="1">
          <mxGeometry x="1320.7099999999998" y="519.41" width="120" height="120" as="geometry" />
        </mxCell>
        <mxCell id="h0RpJ6YCT_kKpjxw3S6f-394" value="" style="endArrow=none;html=1;rounded=0;" edge="1" parent="1">
          <mxGeometry width="50" height="50" relative="1" as="geometry">
            <mxPoint x="1240.7099999999998" y="519.41" as="sourcePoint" />
            <mxPoint x="1380.7099999999998" y="519.41" as="targetPoint" />
            <Array as="points" />
          </mxGeometry>
        </mxCell>
        <mxCell id="h0RpJ6YCT_kKpjxw3S6f-395" value="" style="endArrow=none;html=1;rounded=0;" edge="1" parent="1">
          <mxGeometry width="50" height="50" relative="1" as="geometry">
            <mxPoint x="1380.7099999999998" y="639.41" as="sourcePoint" />
            <mxPoint x="1380.7099999999998" y="519.41" as="targetPoint" />
          </mxGeometry>
        </mxCell>
        <mxCell id="h0RpJ6YCT_kKpjxw3S6f-396" value="" style="endArrow=none;html=1;rounded=0;" edge="1" parent="1">
          <mxGeometry width="50" height="50" relative="1" as="geometry">
            <mxPoint x="1440.7099999999998" y="579.41" as="sourcePoint" />
            <mxPoint x="1440.7099999999998" y="519.41" as="targetPoint" />
          </mxGeometry>
        </mxCell>
        <mxCell id="h0RpJ6YCT_kKpjxw3S6f-397" value="" style="endArrow=none;html=1;rounded=0;" edge="1" parent="1">
          <mxGeometry width="50" height="50" relative="1" as="geometry">
            <mxPoint x="1440.7099999999998" y="519.41" as="sourcePoint" />
            <mxPoint x="1380.7099999999998" y="519.41" as="targetPoint" />
          </mxGeometry>
        </mxCell>
        <mxCell id="h0RpJ6YCT_kKpjxw3S6f-398" value="" style="endArrow=none;html=1;rounded=0;" edge="1" parent="1">
          <mxGeometry width="50" height="50" relative="1" as="geometry">
            <mxPoint x="1240.7099999999998" y="639.41" as="sourcePoint" />
            <mxPoint x="1380.7099999999998" y="639.41" as="targetPoint" />
            <Array as="points">
              <mxPoint x="1309.4999999999998" y="639.41" />
            </Array>
          </mxGeometry>
        </mxCell>
        <mxCell id="h0RpJ6YCT_kKpjxw3S6f-399" value="" style="ellipse;whiteSpace=wrap;html=1;aspect=fixed;" vertex="1" parent="1">
          <mxGeometry x="1180.7099999999998" y="519.41" width="120" height="120" as="geometry" />
        </mxCell>
        <mxCell id="h0RpJ6YCT_kKpjxw3S6f-401" value="" style="endArrow=none;html=1;rounded=0;" edge="1" parent="1">
          <mxGeometry width="50" height="50" relative="1" as="geometry">
            <mxPoint x="1240.7099999999998" y="639.41" as="sourcePoint" />
            <mxPoint x="1240.7099999999998" y="519.41" as="targetPoint" />
          </mxGeometry>
        </mxCell>
        <mxCell id="h0RpJ6YCT_kKpjxw3S6f-402" value="" style="endArrow=none;html=1;rounded=0;" edge="1" parent="1">
          <mxGeometry width="50" height="50" relative="1" as="geometry">
            <mxPoint x="1250.709250014062" y="580.1600037499298" as="sourcePoint" />
            <mxPoint x="1230.7099999999998" y="580.1" as="targetPoint" />
          </mxGeometry>
        </mxCell>
        <mxCell id="h0RpJ6YCT_kKpjxw3S6f-403" value="" style="ellipse;whiteSpace=wrap;html=1;aspect=fixed;" vertex="1" parent="1">
          <mxGeometry x="1321.8899999999999" y="40" width="120" height="120" as="geometry" />
        </mxCell>
        <mxCell id="h0RpJ6YCT_kKpjxw3S6f-404" value="" style="endArrow=none;html=1;rounded=0;" edge="1" parent="1">
          <mxGeometry width="50" height="50" relative="1" as="geometry">
            <mxPoint x="1241.8899999999999" y="40" as="sourcePoint" />
            <mxPoint x="1381.8899999999999" y="40" as="targetPoint" />
            <Array as="points" />
          </mxGeometry>
        </mxCell>
        <mxCell id="h0RpJ6YCT_kKpjxw3S6f-405" value="" style="endArrow=none;html=1;rounded=0;" edge="1" parent="1">
          <mxGeometry width="50" height="50" relative="1" as="geometry">
            <mxPoint x="1381.8899999999999" y="160" as="sourcePoint" />
            <mxPoint x="1381.8899999999999" y="40" as="targetPoint" />
          </mxGeometry>
        </mxCell>
        <mxCell id="h0RpJ6YCT_kKpjxw3S6f-406" value="" style="endArrow=none;html=1;rounded=0;" edge="1" parent="1">
          <mxGeometry width="50" height="50" relative="1" as="geometry">
            <mxPoint x="1441.8899999999999" y="100" as="sourcePoint" />
            <mxPoint x="1441.8899999999999" y="40" as="targetPoint" />
          </mxGeometry>
        </mxCell>
        <mxCell id="h0RpJ6YCT_kKpjxw3S6f-407" value="" style="endArrow=none;html=1;rounded=0;" edge="1" parent="1">
          <mxGeometry width="50" height="50" relative="1" as="geometry">
            <mxPoint x="1441.8899999999999" y="40" as="sourcePoint" />
            <mxPoint x="1381.8899999999999" y="40" as="targetPoint" />
          </mxGeometry>
        </mxCell>
        <mxCell id="h0RpJ6YCT_kKpjxw3S6f-408" value="" style="endArrow=none;html=1;rounded=0;" edge="1" parent="1">
          <mxGeometry width="50" height="50" relative="1" as="geometry">
            <mxPoint x="1241.8899999999999" y="160" as="sourcePoint" />
            <mxPoint x="1381.8899999999999" y="160" as="targetPoint" />
            <Array as="points">
              <mxPoint x="1310.6799999999998" y="160" />
            </Array>
          </mxGeometry>
        </mxCell>
        <mxCell id="h0RpJ6YCT_kKpjxw3S6f-409" value="" style="ellipse;whiteSpace=wrap;html=1;aspect=fixed;" vertex="1" parent="1">
          <mxGeometry x="1181.8899999999999" y="40" width="120" height="120" as="geometry" />
        </mxCell>
        <mxCell id="h0RpJ6YCT_kKpjxw3S6f-411" value="" style="endArrow=none;html=1;rounded=0;" edge="1" parent="1">
          <mxGeometry width="50" height="50" relative="1" as="geometry">
            <mxPoint x="1241.8899999999999" y="160" as="sourcePoint" />
            <mxPoint x="1241.8899999999999" y="40" as="targetPoint" />
          </mxGeometry>
        </mxCell>
        <mxCell id="h0RpJ6YCT_kKpjxw3S6f-412" value="" style="endArrow=none;html=1;rounded=0;" edge="1" parent="1">
          <mxGeometry width="50" height="50" relative="1" as="geometry">
            <mxPoint x="1251.889250014062" y="100.75000374992987" as="sourcePoint" />
            <mxPoint x="1231.8899999999999" y="100.69000000000005" as="targetPoint" />
          </mxGeometry>
        </mxCell>
        <mxCell id="h0RpJ6YCT_kKpjxw3S6f-413" value="" style="endArrow=none;html=1;rounded=0;" edge="1" parent="1">
          <mxGeometry width="50" height="50" relative="1" as="geometry">
            <mxPoint x="1013.3299999999999" y="480" as="sourcePoint" />
            <mxPoint x="1013.3299999999999" y="421.25" as="targetPoint" />
          </mxGeometry>
        </mxCell>
        <mxCell id="h0RpJ6YCT_kKpjxw3S6f-414" value="" style="endArrow=none;html=1;rounded=0;" edge="1" parent="1">
          <mxGeometry width="50" height="50" relative="1" as="geometry">
            <mxPoint x="1012.9" y="319.38" as="sourcePoint" />
            <mxPoint x="1012.9" y="260.63" as="targetPoint" />
          </mxGeometry>
        </mxCell>
      </root>
    </mxGraphModel>
  </diagram>
</mxfile>
